<svg xmlns="http://www.w3.org/2000/svg" xmlns:xlink="http://www.w3.org/1999/xlink" viewBox="0 0 2400 600"><defs><style>.cls-1,.cls-5{fill:none;}.cls-2{clip-path:url(#clip-path);}.cls-3{fill:#fff;}.cls-4{fill:#999;}.cls-5{stroke:#999;stroke-miterlimit:10;stroke-width:0.25px;}.cls-6{fill:url(#Degradado_sin_nombre_5);}.cls-7{fill:#518aef;}.cls-8{fill:#5c9eff;}.cls-9{fill:#27af64;}.cls-10{fill:url(#Degradado_sin_nombre_4);}.cls-11{fill:#35ef89;}.cls-12{fill:url(#Degradado_sin_nombre_5-2);}.cls-13{fill:url(#Degradado_sin_nombre_4-3);}.cls-14{fill:url(#Degradado_sin_nombre_5-3);}.cls-15{fill:url(#Degradado_sin_nombre_4-5);}.cls-16{fill:url(#Degradado_sin_nombre_5-4);}.cls-17{fill:url(#Degradado_sin_nombre_4-7);}.cls-18{fill:url(#Degradado_sin_nombre_5-5);}.cls-19{fill:url(#Degradado_sin_nombre_4-9);}.cls-20{fill:url(#Degradado_sin_nombre_5-6);}.cls-21{fill:url(#Degradado_sin_nombre_4-11);}.cls-22{fill:url(#Degradado_sin_nombre_5-7);}.cls-23{fill:url(#Degradado_sin_nombre_4-13);}.cls-24{fill:url(#Degradado_sin_nombre_5-8);}.cls-25{fill:url(#Degradado_sin_nombre_4-15);}.cls-26{fill:url(#Degradado_sin_nombre_4-16);}.cls-27{fill:url(#Degradado_sin_nombre_5-9);}.cls-28{fill:url(#Degradado_sin_nombre_4-17);}.cls-29{fill:url(#Degradado_sin_nombre_5-10);}.cls-30{fill:url(#Degradado_sin_nombre_4-19);}.cls-31{fill:url(#Degradado_sin_nombre_5-11);}.cls-32{fill:url(#Degradado_sin_nombre_4-21);}.cls-33{fill:url(#Degradado_sin_nombre_5-12);}.cls-34{fill:url(#Degradado_sin_nombre_4-23);}.cls-35{fill:url(#Degradado_sin_nombre_5-13);}.cls-36{fill:url(#Degradado_sin_nombre_4-25);}.cls-37{fill:url(#Degradado_sin_nombre_5-14);}.cls-38{fill:url(#Degradado_sin_nombre_4-27);}.cls-39{fill:url(#Degradado_sin_nombre_5-15);}.cls-40{fill:url(#Degradado_sin_nombre_4-29);}.cls-41{fill:url(#Degradado_sin_nombre_4-31);}.cls-42{fill:url(#Degradado_sin_nombre_5-16);}.cls-43{fill:url(#Degradado_sin_nombre_4-32);}.cls-44{fill:url(#Degradado_sin_nombre_5-17);}.cls-45{fill:url(#Degradado_sin_nombre_4-34);}.cls-46{fill:url(#Degradado_sin_nombre_5-18);}.cls-47{fill:url(#Degradado_sin_nombre_4-36);}.cls-48{fill:url(#Degradado_sin_nombre_4-37);}.cls-49{fill:url(#Degradado_sin_nombre_5-19);}.cls-50{fill:url(#Degradado_sin_nombre_4-38);}.cls-51{fill:url(#Degradado_sin_nombre_5-20);}.cls-52{fill:url(#Degradado_sin_nombre_4-40);}.cls-53{fill:url(#Degradado_sin_nombre_5-21);}.cls-54{fill:url(#Degradado_sin_nombre_4-42);}.cls-55{fill:url(#Degradado_sin_nombre_4-43);}.cls-56{fill:url(#Degradado_sin_nombre_5-22);}.cls-57{fill:url(#Degradado_sin_nombre_4-44);}.cls-58{fill:url(#Degradado_sin_nombre_5-23);}.cls-59{fill:url(#Degradado_sin_nombre_4-46);}.cls-60{fill:url(#Degradado_sin_nombre_5-24);}.cls-61{fill:url(#Degradado_sin_nombre_4-48);}.cls-62{fill:url(#Degradado_sin_nombre_5-25);}.cls-63{fill:url(#Degradado_sin_nombre_4-50);}.cls-64{fill:url(#Degradado_sin_nombre_5-26);}.cls-65{fill:url(#Degradado_sin_nombre_4-52);}.cls-66{fill:url(#Degradado_sin_nombre_5-27);}.cls-67{fill:url(#Degradado_sin_nombre_4-54);}.cls-68{fill:url(#Degradado_sin_nombre_5-28);}.cls-69{fill:url(#Degradado_sin_nombre_4-56);}.cls-70{fill:url(#Degradado_sin_nombre_5-29);}.cls-71{fill:url(#Degradado_sin_nombre_4-58);}.cls-72{fill:url(#Degradado_sin_nombre_5-30);}.cls-73{fill:url(#Degradado_sin_nombre_4-60);}.cls-74{fill:url(#Degradado_sin_nombre_4-62);}.cls-75{fill:url(#Degradado_sin_nombre_5-31);}.cls-76{fill:url(#Degradado_sin_nombre_4-63);}.cls-77{fill:url(#Degradado_sin_nombre_4-65);}.cls-78{fill:url(#Degradado_sin_nombre_4-66);}.cls-79{fill:url(#Degradado_sin_nombre_4-67);}.cls-80{fill:url(#Degradado_sin_nombre_5-32);}.cls-81{fill:url(#Degradado_sin_nombre_5-33);}.cls-82{fill:url(#Degradado_sin_nombre_4-68);}.cls-83{fill:url(#Degradado_sin_nombre_5-34);}.cls-84{fill:url(#Degradado_sin_nombre_4-70);}.cls-85{fill:url(#Degradado_sin_nombre_5-35);}.cls-86{fill:url(#Degradado_sin_nombre_4-72);}.cls-87{fill:url(#Degradado_sin_nombre_4-73);}.cls-88{fill:url(#Degradado_sin_nombre_5-36);}.cls-89{fill:url(#Degradado_sin_nombre_4-74);}.cls-90{fill:url(#Degradado_sin_nombre_4-75);}.cls-91{fill:url(#Degradado_sin_nombre_4-76);}.cls-92{fill:url(#Degradado_sin_nombre_4-77);}.cls-93{fill:url(#Degradado_sin_nombre_5-37);}.cls-94{fill:url(#Degradado_sin_nombre_4-78);}.cls-95{fill:url(#Degradado_sin_nombre_5-38);}.cls-96{fill:url(#Degradado_sin_nombre_4-80);}.cls-97{fill:url(#Degradado_sin_nombre_5-39);}.cls-98{fill:url(#Degradado_sin_nombre_4-82);}.cls-99{fill:url(#Degradado_sin_nombre_4-84);}.cls-100{fill:url(#Degradado_sin_nombre_5-40);}.cls-101{fill:url(#Degradado_sin_nombre_4-85);}.cls-102{fill:url(#Degradado_sin_nombre_4-87);}.cls-103{fill:url(#Degradado_sin_nombre_5-41);}.cls-104{fill:url(#Degradado_sin_nombre_4-89);}.cls-105{fill:url(#Degradado_sin_nombre_5-42);}.cls-106{fill:url(#Degradado_sin_nombre_4-91);}.cls-107{fill:url(#Degradado_sin_nombre_5-43);}.cls-108{fill:url(#Degradado_sin_nombre_4-93);}.cls-109{fill:url(#Degradado_sin_nombre_5-44);}.cls-110{fill:url(#Degradado_sin_nombre_4-94);}.cls-111{clip-path:url(#clip-path-2);}.cls-112{fill:url(#Degradado_sin_nombre_5-45);}.cls-113{fill:url(#Degradado_sin_nombre_5-46);}.cls-114{fill:url(#Degradado_sin_nombre_5-47);}.cls-115{fill:url(#Degradado_sin_nombre_5-48);}.cls-116{fill:url(#Degradado_sin_nombre_4-96);}.cls-117{fill:url(#Degradado_sin_nombre_5-49);}.cls-118{fill:url(#Degradado_sin_nombre_4-97);}.cls-119{fill:url(#Degradado_sin_nombre_4-98);}.cls-120{fill:url(#Degradado_sin_nombre_5-50);}.cls-121{fill:url(#Degradado_sin_nombre_4-99);}.cls-122{fill:url(#Degradado_sin_nombre_5-51);}.cls-123{fill:url(#Degradado_sin_nombre_4-100);}.cls-124{fill:url(#Degradado_sin_nombre_5-52);}.cls-125{fill:url(#Degradado_sin_nombre_4-101);}.cls-126{fill:url(#Degradado_sin_nombre_5-53);}.cls-127{fill:url(#Degradado_sin_nombre_4-102);}.cls-128{fill:url(#Degradado_sin_nombre_5-54);}.cls-129{fill:url(#Degradado_sin_nombre_4-103);}.cls-130{fill:url(#Degradado_sin_nombre_5-55);}.cls-131{fill:url(#Degradado_sin_nombre_4-104);}.cls-132{fill:url(#Degradado_sin_nombre_5-56);}.cls-133{fill:url(#Degradado_sin_nombre_4-105);}.cls-134{fill:url(#Degradado_sin_nombre_5-57);}.cls-135{fill:url(#Degradado_sin_nombre_4-106);}.cls-136{fill:url(#Degradado_sin_nombre_5-58);}.cls-137{fill:url(#Degradado_sin_nombre_4-107);}.cls-138{fill:url(#Degradado_sin_nombre_5-59);}.cls-139{fill:url(#Degradado_sin_nombre_4-108);}.cls-140{fill:url(#Degradado_sin_nombre_5-60);}.cls-141{fill:url(#Degradado_sin_nombre_4-109);}.cls-142{fill:url(#Degradado_sin_nombre_5-61);}.cls-143{fill:url(#Degradado_sin_nombre_4-110);}.cls-144{fill:url(#Degradado_sin_nombre_5-62);}.cls-145{fill:url(#Degradado_sin_nombre_4-111);}.cls-146{fill:url(#Degradado_sin_nombre_4-112);}.cls-147{fill:url(#Degradado_sin_nombre_5-63);}.cls-148{fill:url(#Degradado_sin_nombre_4-113);}.cls-149{fill:url(#Degradado_sin_nombre_5-64);}.cls-150{fill:url(#Degradado_sin_nombre_4-114);}.cls-151{fill:url(#Degradado_sin_nombre_5-65);}.cls-152{fill:url(#Degradado_sin_nombre_4-115);}.cls-153{fill:url(#Degradado_sin_nombre_5-66);}.cls-154{fill:url(#Degradado_sin_nombre_4-116);}.cls-155{fill:url(#Degradado_sin_nombre_5-67);}.cls-156{fill:url(#Degradado_sin_nombre_4-117);}.cls-157{fill:url(#Degradado_sin_nombre_5-68);}.cls-158{fill:url(#Degradado_sin_nombre_4-118);}.cls-159{fill:url(#Degradado_sin_nombre_5-69);}.cls-160{fill:url(#Degradado_sin_nombre_4-119);}.cls-161{fill:url(#Degradado_sin_nombre_5-70);}.cls-162{fill:url(#Degradado_sin_nombre_4-120);}.cls-163{fill:url(#Degradado_sin_nombre_5-71);}.cls-164{fill:url(#Degradado_sin_nombre_4-121);}.cls-165{fill:url(#Degradado_sin_nombre_5-72);}.cls-166{fill:url(#Degradado_sin_nombre_4-122);}.cls-167{fill:url(#Degradado_sin_nombre_4-123);}.cls-168{fill:url(#Degradado_sin_nombre_5-73);}.cls-169{fill:url(#Degradado_sin_nombre_4-124);}.cls-170{fill:url(#Degradado_sin_nombre_4-125);}</style><clipPath id="clip-path"><rect class="cls-1" x="-1940" width="1920" height="1080"/></clipPath><linearGradient id="Degradado_sin_nombre_5" x1="573.71" y1="286.79" x2="479.95" y2="240.04" gradientUnits="userSpaceOnUse"><stop offset="0" stop-color="#467ac6"/><stop offset="1" stop-color="#518aef"/></linearGradient><linearGradient id="Degradado_sin_nombre_4" x1="439.02" y1="102.44" x2="439.02" y2="321.95" gradientUnits="userSpaceOnUse"><stop offset="0" stop-color="#27af64"/><stop offset="1" stop-color="#2bd37e"/></linearGradient><linearGradient id="Degradado_sin_nombre_5-2" x1="749.32" y1="257.52" x2="655.56" y2="210.77" xlink:href="#Degradado_sin_nombre_5"/><linearGradient id="Degradado_sin_nombre_4-3" x1="614.63" y1="73.17" x2="614.63" y2="292.68" xlink:href="#Degradado_sin_nombre_4"/><linearGradient id="Degradado_sin_nombre_5-3" x1="398.1" y1="316.06" x2="304.34" y2="269.31" xlink:href="#Degradado_sin_nombre_5"/><linearGradient id="Degradado_sin_nombre_4-5" x1="263.41" y1="131.71" x2="263.41" y2="351.22" xlink:href="#Degradado_sin_nombre_4"/><linearGradient id="Degradado_sin_nombre_5-4" x1="632.25" y1="477.03" x2="538.48" y2="430.28" xlink:href="#Degradado_sin_nombre_5"/><linearGradient id="Degradado_sin_nombre_4-7" x1="497.56" y1="292.68" x2="497.56" y2="512.2" xlink:href="#Degradado_sin_nombre_4"/><linearGradient id="Degradado_sin_nombre_5-5" x1="515.18" y1="96.55" x2="421.41" y2="49.8" xlink:href="#Degradado_sin_nombre_5"/><linearGradient id="Degradado_sin_nombre_4-9" x1="380.49" y1="-87.8" x2="380.49" y2="131.71" xlink:href="#Degradado_sin_nombre_4"/><linearGradient id="Degradado_sin_nombre_5-6" x1="339.57" y1="125.81" x2="245.8" y2="79.06" xlink:href="#Degradado_sin_nombre_5"/><linearGradient id="Degradado_sin_nombre_4-11" x1="204.88" y1="-58.54" x2="204.88" y2="160.98" xlink:href="#Degradado_sin_nombre_4"/><linearGradient id="Degradado_sin_nombre_5-7" x1="807.86" y1="447.76" x2="714.09" y2="401.02" xlink:href="#Degradado_sin_nombre_5"/><linearGradient id="Degradado_sin_nombre_4-13" x1="673.17" y1="263.41" x2="673.17" y2="482.93" xlink:href="#Degradado_sin_nombre_4"/><linearGradient id="Degradado_sin_nombre_5-8" x1="690.78" y1="67.28" x2="597.02" y2="20.53" xlink:href="#Degradado_sin_nombre_5"/><linearGradient id="Degradado_sin_nombre_4-15" x1="556.1" y1="-117.07" x2="556.1" y2="102.44" xlink:href="#Degradado_sin_nombre_4"/><linearGradient id="Degradado_sin_nombre_4-16" x1="556.1" y1="-117.07" x2="556.1" y2="102.44" xlink:href="#Degradado_sin_nombre_4"/><linearGradient id="Degradado_sin_nombre_5-9" x1="456.64" y1="506.3" x2="362.87" y2="459.55" xlink:href="#Degradado_sin_nombre_5"/><linearGradient id="Degradado_sin_nombre_4-17" x1="321.95" y1="321.95" x2="321.95" y2="541.46" xlink:href="#Degradado_sin_nombre_4"/><linearGradient id="Degradado_sin_nombre_5-10" x1="222.49" y1="345.33" x2="128.73" y2="298.58" xlink:href="#Degradado_sin_nombre_5"/><linearGradient id="Degradado_sin_nombre_4-19" x1="87.8" y1="160.98" x2="87.8" y2="380.49" xlink:href="#Degradado_sin_nombre_4"/><linearGradient id="Degradado_sin_nombre_5-11" x1="163.96" y1="155.08" x2="70.19" y2="108.33" xlink:href="#Degradado_sin_nombre_5"/><linearGradient id="Degradado_sin_nombre_4-21" x1="29.27" y1="-29.27" x2="29.27" y2="190.24" xlink:href="#Degradado_sin_nombre_4"/><linearGradient id="Degradado_sin_nombre_5-12" x1="281.03" y1="535.57" x2="187.26" y2="488.82" xlink:href="#Degradado_sin_nombre_5"/><linearGradient id="Degradado_sin_nombre_4-23" x1="146.34" y1="351.22" x2="146.34" y2="570.73" xlink:href="#Degradado_sin_nombre_4"/><linearGradient id="Degradado_sin_nombre_5-13" x1="1451.76" y1="140.45" x2="1358" y2="93.7" xlink:href="#Degradado_sin_nombre_5"/><linearGradient id="Degradado_sin_nombre_4-25" x1="1317.07" y1="-43.9" x2="1317.07" y2="175.61" xlink:href="#Degradado_sin_nombre_4"/><linearGradient id="Degradado_sin_nombre_5-14" x1="1276.15" y1="169.72" x2="1182.39" y2="122.97" xlink:href="#Degradado_sin_nombre_5"/><linearGradient id="Degradado_sin_nombre_4-27" x1="1141.46" y1="-14.63" x2="1141.46" y2="204.88" xlink:href="#Degradado_sin_nombre_4"/><linearGradient id="Degradado_sin_nombre_5-15" x1="1510.3" y1="330.69" x2="1416.53" y2="283.94" xlink:href="#Degradado_sin_nombre_5"/><linearGradient id="Degradado_sin_nombre_4-29" x1="1375.61" y1="146.34" x2="1375.61" y2="365.85" xlink:href="#Degradado_sin_nombre_4"/><linearGradient id="Degradado_sin_nombre_4-31" x1="1097.56" y1="-204.88" x2="1097.56" y2="14.63" xlink:href="#Degradado_sin_nombre_4"/><linearGradient id="Degradado_sin_nombre_5-16" x1="1334.69" y1="359.96" x2="1240.92" y2="313.21" xlink:href="#Degradado_sin_nombre_5"/><linearGradient id="Degradado_sin_nombre_4-32" x1="1200" y1="175.61" x2="1200" y2="395.12" xlink:href="#Degradado_sin_nombre_4"/><linearGradient id="Degradado_sin_nombre_5-17" x1="1100.54" y1="198.98" x2="1006.78" y2="152.23" xlink:href="#Degradado_sin_nombre_5"/><linearGradient id="Degradado_sin_nombre_4-34" x1="965.85" y1="14.63" x2="965.85" y2="234.15" xlink:href="#Degradado_sin_nombre_4"/><linearGradient id="Degradado_sin_nombre_5-18" x1="1033.24" y1="26.32" x2="939.47" y2="-20.43" xlink:href="#Degradado_sin_nombre_5"/><linearGradient id="Degradado_sin_nombre_4-36" x1="892.68" y1="-175.61" x2="892.68" y2="43.9" xlink:href="#Degradado_sin_nombre_4"/><linearGradient id="Degradado_sin_nombre_4-37" x1="907.32" y1="-175.61" x2="907.32" y2="43.9" xlink:href="#Degradado_sin_nombre_4"/><linearGradient id="Degradado_sin_nombre_5-19" x1="1159.08" y1="389.23" x2="1065.31" y2="342.48" xlink:href="#Degradado_sin_nombre_5"/><linearGradient id="Degradado_sin_nombre_4-38" x1="1024.39" y1="204.88" x2="1024.39" y2="424.39" xlink:href="#Degradado_sin_nombre_4"/><linearGradient id="Degradado_sin_nombre_5-20" x1="924.93" y1="228.25" x2="831.17" y2="181.5" xlink:href="#Degradado_sin_nombre_5"/><linearGradient id="Degradado_sin_nombre_4-40" x1="790.24" y1="43.9" x2="790.24" y2="263.41" xlink:href="#Degradado_sin_nombre_4"/><linearGradient id="Degradado_sin_nombre_5-21" x1="863.47" y1="43.87" x2="769.71" y2="-2.88" xlink:href="#Degradado_sin_nombre_5"/><linearGradient id="Degradado_sin_nombre_4-42" x1="731.71" y1="-146.34" x2="731.71" y2="73.17" xlink:href="#Degradado_sin_nombre_4"/><linearGradient id="Degradado_sin_nombre_4-43" x1="731.71" y1="-146.34" x2="731.71" y2="73.17" xlink:href="#Degradado_sin_nombre_4"/><linearGradient id="Degradado_sin_nombre_5-22" x1="983.47" y1="418.5" x2="889.7" y2="371.75" xlink:href="#Degradado_sin_nombre_5"/><linearGradient id="Degradado_sin_nombre_4-44" x1="848.78" y1="234.15" x2="848.78" y2="453.66" xlink:href="#Degradado_sin_nombre_4"/><linearGradient id="Degradado_sin_nombre_5-23" x1="1978.59" y1="52.64" x2="1884.82" y2="5.89" xlink:href="#Degradado_sin_nombre_5"/><linearGradient id="Degradado_sin_nombre_4-46" x1="1843.9" y1="-131.71" x2="1843.9" y2="87.8" xlink:href="#Degradado_sin_nombre_4"/><linearGradient id="Degradado_sin_nombre_5-24" x1="2148.36" y1="35.1" x2="2054.59" y2="-11.65" xlink:href="#Degradado_sin_nombre_5"/><linearGradient id="Degradado_sin_nombre_4-48" x1="2019.51" y1="-160.98" x2="2019.51" y2="58.54" xlink:href="#Degradado_sin_nombre_4"/><linearGradient id="Degradado_sin_nombre_5-25" x1="1802.98" y1="81.91" x2="1709.22" y2="35.16" xlink:href="#Degradado_sin_nombre_5"/><linearGradient id="Degradado_sin_nombre_4-50" x1="1668.29" y1="-102.44" x2="1668.29" y2="117.07" xlink:href="#Degradado_sin_nombre_4"/><linearGradient id="Degradado_sin_nombre_5-26" x1="2037.13" y1="242.89" x2="1943.36" y2="196.14" xlink:href="#Degradado_sin_nombre_5"/><linearGradient id="Degradado_sin_nombre_4-52" x1="1902.44" y1="58.54" x2="1902.44" y2="278.05" xlink:href="#Degradado_sin_nombre_4"/><linearGradient id="Degradado_sin_nombre_5-27" x1="2212.74" y1="213.62" x2="2118.97" y2="166.87" xlink:href="#Degradado_sin_nombre_5"/><linearGradient id="Degradado_sin_nombre_4-54" x1="2078.05" y1="29.27" x2="2078.05" y2="248.78" xlink:href="#Degradado_sin_nombre_4"/><linearGradient id="Degradado_sin_nombre_5-28" x1="1861.52" y1="272.16" x2="1767.75" y2="225.41" xlink:href="#Degradado_sin_nombre_5"/><linearGradient id="Degradado_sin_nombre_4-56" x1="1726.83" y1="87.8" x2="1726.83" y2="307.32" xlink:href="#Degradado_sin_nombre_4"/><linearGradient id="Degradado_sin_nombre_5-29" x1="1627.37" y1="111.18" x2="1533.61" y2="64.43" xlink:href="#Degradado_sin_nombre_5"/><linearGradient id="Degradado_sin_nombre_4-58" x1="1492.68" y1="-73.17" x2="1492.68" y2="146.34" xlink:href="#Degradado_sin_nombre_4"/><linearGradient id="Degradado_sin_nombre_5-30" x1="1685.91" y1="301.42" x2="1592.14" y2="254.67" xlink:href="#Degradado_sin_nombre_5"/><linearGradient id="Degradado_sin_nombre_4-60" x1="1551.22" y1="117.07" x2="1551.22" y2="336.59" xlink:href="#Degradado_sin_nombre_4"/><linearGradient id="Degradado_sin_nombre_4-62" x1="2195.12" y1="-190.24" x2="2195.12" y2="29.27" xlink:href="#Degradado_sin_nombre_4"/><linearGradient id="Degradado_sin_nombre_5-31" x1="2388.35" y1="184.35" x2="2294.58" y2="137.6" xlink:href="#Degradado_sin_nombre_5"/><linearGradient id="Degradado_sin_nombre_4-63" x1="2253.66" y1="0" x2="2253.66" y2="219.51" xlink:href="#Degradado_sin_nombre_4"/><linearGradient id="Degradado_sin_nombre_4-65" x1="380.49" y1="512.2" x2="380.49" y2="731.71" xlink:href="#Degradado_sin_nombre_4"/><linearGradient id="Degradado_sin_nombre_4-66" x1="204.88" y1="541.46" x2="204.88" y2="760.98" xlink:href="#Degradado_sin_nombre_4"/><linearGradient id="Degradado_sin_nombre_4-67" x1="556.1" y1="482.93" x2="556.1" y2="702.44" xlink:href="#Degradado_sin_nombre_4"/><linearGradient id="Degradado_sin_nombre_5-32" x1="105.42" y1="564.84" x2="11.65" y2="518.09" xlink:href="#Degradado_sin_nombre_5"/><linearGradient id="Degradado_sin_nombre_5-33" x1="1393.22" y1="550.2" x2="1299.46" y2="503.45" xlink:href="#Degradado_sin_nombre_5"/><linearGradient id="Degradado_sin_nombre_4-68" x1="1258.54" y1="365.85" x2="1258.54" y2="585.37" xlink:href="#Degradado_sin_nombre_4"/><linearGradient id="Degradado_sin_nombre_5-34" x1="1217.61" y1="579.47" x2="1123.85" y2="532.72" xlink:href="#Degradado_sin_nombre_5"/><linearGradient id="Degradado_sin_nombre_4-70" x1="1082.93" y1="395.12" x2="1082.93" y2="614.63" xlink:href="#Degradado_sin_nombre_4"/><linearGradient id="Degradado_sin_nombre_5-35" x1="1042.01" y1="608.72" x2="948.25" y2="561.97" xlink:href="#Degradado_sin_nombre_5"/><linearGradient id="Degradado_sin_nombre_4-72" x1="907.32" y1="424.39" x2="907.32" y2="643.9" xlink:href="#Degradado_sin_nombre_4"/><linearGradient id="Degradado_sin_nombre_4-73" x1="921.95" y1="424.39" x2="921.95" y2="643.9" xlink:href="#Degradado_sin_nombre_4"/><linearGradient id="Degradado_sin_nombre_5-36" x1="872.25" y1="626.27" x2="778.48" y2="579.52" xlink:href="#Degradado_sin_nombre_5"/><linearGradient id="Degradado_sin_nombre_4-74" x1="731.71" y1="453.66" x2="731.71" y2="673.17" xlink:href="#Degradado_sin_nombre_4"/><linearGradient id="Degradado_sin_nombre_4-75" x1="1668.29" y1="497.56" x2="1668.29" y2="717.07" xlink:href="#Degradado_sin_nombre_4"/><linearGradient id="Degradado_sin_nombre_4-76" x1="1492.68" y1="526.83" x2="1492.68" y2="746.34" xlink:href="#Degradado_sin_nombre_4"/><linearGradient id="Degradado_sin_nombre_4-77" x1="1843.9" y1="468.29" x2="1843.9" y2="687.8" xlink:href="#Degradado_sin_nombre_4"/><linearGradient id="Degradado_sin_nombre_5-37" x1="1920.05" y1="462.4" x2="1826.29" y2="415.65" xlink:href="#Degradado_sin_nombre_5"/><linearGradient id="Degradado_sin_nombre_4-78" x1="1785.37" y1="278.05" x2="1785.37" y2="497.56" xlink:href="#Degradado_sin_nombre_4"/><linearGradient id="Degradado_sin_nombre_5-38" x1="1744.44" y1="491.67" x2="1650.68" y2="444.92" xlink:href="#Degradado_sin_nombre_5"/><linearGradient id="Degradado_sin_nombre_4-80" x1="1609.76" y1="307.32" x2="1609.76" y2="526.83" xlink:href="#Degradado_sin_nombre_4"/><linearGradient id="Degradado_sin_nombre_5-39" x1="2095.66" y1="433.13" x2="2001.9" y2="386.38" xlink:href="#Degradado_sin_nombre_5"/><linearGradient id="Degradado_sin_nombre_4-82" x1="1960.98" y1="248.78" x2="1960.98" y2="468.29" xlink:href="#Degradado_sin_nombre_4"/><linearGradient id="Degradado_sin_nombre_4-84" x1="1302.44" y1="556.1" x2="1302.44" y2="775.61" xlink:href="#Degradado_sin_nombre_4"/><linearGradient id="Degradado_sin_nombre_5-40" x1="1568.83" y1="520.94" x2="1475.07" y2="474.19" xlink:href="#Degradado_sin_nombre_5"/><linearGradient id="Degradado_sin_nombre_4-85" x1="1434.15" y1="336.59" x2="1434.15" y2="556.1" xlink:href="#Degradado_sin_nombre_4"/><linearGradient id="Degradado_sin_nombre_4-87" x1="2370.73" y1="380.49" x2="2370.73" y2="600" xlink:href="#Degradado_sin_nombre_4"/><linearGradient id="Degradado_sin_nombre_5-41" x1="2329.81" y1="594.11" x2="2236.04" y2="547.36" xlink:href="#Degradado_sin_nombre_5"/><linearGradient id="Degradado_sin_nombre_4-89" x1="2195.12" y1="409.76" x2="2195.12" y2="629.27" xlink:href="#Degradado_sin_nombre_4"/><linearGradient id="Degradado_sin_nombre_5-42" x1="2446.88" y1="374.59" x2="2353.12" y2="327.84" xlink:href="#Degradado_sin_nombre_5"/><linearGradient id="Degradado_sin_nombre_4-91" x1="2312.2" y1="190.24" x2="2312.2" y2="409.76" xlink:href="#Degradado_sin_nombre_4"/><linearGradient id="Degradado_sin_nombre_5-43" x1="2154.22" y1="623.34" x2="2060.45" y2="576.59" xlink:href="#Degradado_sin_nombre_5"/><linearGradient id="Degradado_sin_nombre_4-93" x1="2019.51" y1="439.02" x2="2019.51" y2="658.54" xlink:href="#Degradado_sin_nombre_4"/><linearGradient id="Degradado_sin_nombre_5-44" x1="2271.27" y1="403.86" x2="2177.51" y2="357.11" xlink:href="#Degradado_sin_nombre_5"/><linearGradient id="Degradado_sin_nombre_4-94" x1="2136.59" y1="219.51" x2="2136.59" y2="439.02" xlink:href="#Degradado_sin_nombre_4"/><clipPath id="clip-path-2"><rect class="cls-1" x="-3880" width="1920" height="1080"/></clipPath><linearGradient id="Degradado_sin_nombre_5-45" x1="45.33" y1="179.87" x2="-14.1" y2="150.24" xlink:href="#Degradado_sin_nombre_5"/><linearGradient id="Degradado_sin_nombre_5-46" x1="8.23" y1="439.57" x2="-51.2" y2="409.94" xlink:href="#Degradado_sin_nombre_5"/><linearGradient id="Degradado_sin_nombre_5-47" x1="8.23" y1="59.3" x2="-51.2" y2="29.67" xlink:href="#Degradado_sin_nombre_5"/><linearGradient id="Degradado_sin_nombre_5-48" x1="82.43" y1="300.44" x2="23" y2="270.81" xlink:href="#Degradado_sin_nombre_5"/><linearGradient id="Degradado_sin_nombre_4-96" x1="-2.94" y1="183.61" x2="-2.94" y2="322.73" xlink:href="#Degradado_sin_nombre_4"/><linearGradient id="Degradado_sin_nombre_5-49" x1="119.53" y1="421.02" x2="60.1" y2="391.39" xlink:href="#Degradado_sin_nombre_5"/><linearGradient id="Degradado_sin_nombre_4-97" x1="34.16" y1="304.18" x2="34.16" y2="443.3" xlink:href="#Degradado_sin_nombre_4"/><linearGradient id="Degradado_sin_nombre_4-98" x1="-2.94" y1="563.88" x2="-2.94" y2="703" xlink:href="#Degradado_sin_nombre_4"/><linearGradient id="Degradado_sin_nombre_5-50" x1="45.33" y1="560.14" x2="-14.1" y2="530.51" xlink:href="#Degradado_sin_nombre_5"/><linearGradient id="Degradado_sin_nombre_4-99" x1="108.36" y1="545.33" x2="108.36" y2="684.45" xlink:href="#Degradado_sin_nombre_4"/><linearGradient id="Degradado_sin_nombre_5-51" x1="156.62" y1="541.59" x2="97.2" y2="511.96" xlink:href="#Degradado_sin_nombre_5"/><linearGradient id="Degradado_sin_nombre_4-100" x1="71.26" y1="424.75" x2="71.26" y2="563.88" xlink:href="#Degradado_sin_nombre_4"/><linearGradient id="Degradado_sin_nombre_5-52" x1="193.72" y1="281.89" x2="134.3" y2="252.27" xlink:href="#Degradado_sin_nombre_5"/><linearGradient id="Degradado_sin_nombre_4-101" x1="108.36" y1="165.06" x2="108.36" y2="304.18" xlink:href="#Degradado_sin_nombre_4"/><linearGradient id="Degradado_sin_nombre_5-53" x1="267.92" y1="142.77" x2="208.5" y2="113.14" xlink:href="#Degradado_sin_nombre_5"/><linearGradient id="Degradado_sin_nombre_4-102" x1="182.56" y1="25.93" x2="182.56" y2="165.06" xlink:href="#Degradado_sin_nombre_4"/><linearGradient id="Degradado_sin_nombre_5-54" x1="230.82" y1="22.2" x2="171.4" y2="-7.43" xlink:href="#Degradado_sin_nombre_5"/><linearGradient id="Degradado_sin_nombre_4-103" x1="145.46" y1="-94.64" x2="145.46" y2="44.48" xlink:href="#Degradado_sin_nombre_4"/><linearGradient id="Degradado_sin_nombre_5-55" x1="305.02" y1="263.34" x2="245.6" y2="233.72" xlink:href="#Degradado_sin_nombre_5"/><linearGradient id="Degradado_sin_nombre_4-104" x1="219.66" y1="146.51" x2="219.66" y2="285.63" xlink:href="#Degradado_sin_nombre_4"/><linearGradient id="Degradado_sin_nombre_5-56" x1="379.22" y1="124.22" x2="319.79" y2="94.59" xlink:href="#Degradado_sin_nombre_5"/><linearGradient id="Degradado_sin_nombre_4-105" x1="293.86" y1="7.38" x2="293.86" y2="146.51" xlink:href="#Degradado_sin_nombre_4"/><linearGradient id="Degradado_sin_nombre_5-57" x1="230.82" y1="402.47" x2="171.4" y2="372.84" xlink:href="#Degradado_sin_nombre_5"/><linearGradient id="Degradado_sin_nombre_4-106" x1="145.46" y1="285.63" x2="145.46" y2="424.75" xlink:href="#Degradado_sin_nombre_4"/><linearGradient id="Degradado_sin_nombre_5-58" x1="416.32" y1="244.79" x2="356.89" y2="215.17" xlink:href="#Degradado_sin_nombre_5"/><linearGradient id="Degradado_sin_nombre_4-107" x1="330.96" y1="127.96" x2="330.96" y2="267.08" xlink:href="#Degradado_sin_nombre_4"/><linearGradient id="Degradado_sin_nombre_5-59" x1="342.12" y1="3.65" x2="282.7" y2="-25.98" xlink:href="#Degradado_sin_nombre_5"/><linearGradient id="Degradado_sin_nombre_4-108" x1="256.76" y1="-113.19" x2="256.76" y2="25.93" xlink:href="#Degradado_sin_nombre_4"/><linearGradient id="Degradado_sin_nombre_5-60" x1="342.12" y1="383.92" x2="282.7" y2="354.29" xlink:href="#Degradado_sin_nombre_5"/><linearGradient id="Degradado_sin_nombre_4-109" x1="256.76" y1="267.08" x2="256.76" y2="406.2" xlink:href="#Degradado_sin_nombre_4"/><linearGradient id="Degradado_sin_nombre_5-61" x1="490.52" y1="105.67" x2="431.09" y2="76.04" xlink:href="#Degradado_sin_nombre_5"/><linearGradient id="Degradado_sin_nombre_4-110" x1="405.16" y1="-11.17" x2="405.16" y2="127.96" xlink:href="#Degradado_sin_nombre_4"/><linearGradient id="Degradado_sin_nombre_5-62" x1="453.42" y1="365.37" x2="393.99" y2="335.74" xlink:href="#Degradado_sin_nombre_5"/><linearGradient id="Degradado_sin_nombre_4-111" x1="368.06" y1="248.53" x2="368.06" y2="387.65" xlink:href="#Degradado_sin_nombre_4"/><linearGradient id="Degradado_sin_nombre_4-112" x1="368.06" y1="-131.74" x2="368.06" y2="7.38" xlink:href="#Degradado_sin_nombre_4"/><linearGradient id="Degradado_sin_nombre_5-63" x1="527.62" y1="226.24" x2="468.19" y2="196.62" xlink:href="#Degradado_sin_nombre_5"/><linearGradient id="Degradado_sin_nombre_4-113" x1="442.26" y1="109.41" x2="442.26" y2="248.53" xlink:href="#Degradado_sin_nombre_4"/><linearGradient id="Degradado_sin_nombre_5-64" x1="564.72" y1="346.82" x2="505.29" y2="317.19" xlink:href="#Degradado_sin_nombre_5"/><linearGradient id="Degradado_sin_nombre_4-114" x1="479.36" y1="229.98" x2="479.36" y2="369.1" xlink:href="#Degradado_sin_nombre_4"/><linearGradient id="Degradado_sin_nombre_5-65" x1="119.53" y1="40.75" x2="60.1" y2="11.12" xlink:href="#Degradado_sin_nombre_5"/><linearGradient id="Degradado_sin_nombre_4-115" x1="34.16" y1="-76.09" x2="34.16" y2="63.03" xlink:href="#Degradado_sin_nombre_4"/><linearGradient id="Degradado_sin_nombre_5-66" x1="156.62" y1="161.32" x2="97.2" y2="131.69" xlink:href="#Degradado_sin_nombre_5"/><linearGradient id="Degradado_sin_nombre_4-116" x1="71.26" y1="44.48" x2="71.26" y2="183.61" xlink:href="#Degradado_sin_nombre_4"/><linearGradient id="Degradado_sin_nombre_5-67" x1="416.32" y1="625.06" x2="356.89" y2="595.44" xlink:href="#Degradado_sin_nombre_5"/><linearGradient id="Degradado_sin_nombre_4-117" x1="330.96" y1="508.23" x2="330.96" y2="647.35" xlink:href="#Degradado_sin_nombre_4"/><linearGradient id="Degradado_sin_nombre_5-68" x1="379.22" y1="504.49" x2="319.79" y2="474.86" xlink:href="#Degradado_sin_nombre_5"/><linearGradient id="Degradado_sin_nombre_4-118" x1="293.86" y1="387.65" x2="293.86" y2="526.78" xlink:href="#Degradado_sin_nombre_4"/><linearGradient id="Degradado_sin_nombre_5-69" x1="527.62" y1="606.51" x2="468.19" y2="576.89" xlink:href="#Degradado_sin_nombre_5"/><linearGradient id="Degradado_sin_nombre_4-119" x1="442.26" y1="489.68" x2="442.26" y2="628.8" xlink:href="#Degradado_sin_nombre_4"/><linearGradient id="Degradado_sin_nombre_5-70" x1="490.52" y1="485.94" x2="431.09" y2="456.31" xlink:href="#Degradado_sin_nombre_5"/><linearGradient id="Degradado_sin_nombre_4-120" x1="405.16" y1="369.1" x2="405.16" y2="508.23" xlink:href="#Degradado_sin_nombre_4"/><linearGradient id="Degradado_sin_nombre_5-71" x1="638.92" y1="587.96" x2="579.49" y2="558.34" xlink:href="#Degradado_sin_nombre_5"/><linearGradient id="Degradado_sin_nombre_4-121" x1="553.56" y1="471.13" x2="553.56" y2="610.25" xlink:href="#Degradado_sin_nombre_4"/><linearGradient id="Degradado_sin_nombre_5-72" x1="601.82" y1="467.39" x2="542.39" y2="437.76" xlink:href="#Degradado_sin_nombre_5"/><linearGradient id="Degradado_sin_nombre_4-122" x1="516.46" y1="350.55" x2="516.46" y2="489.68" xlink:href="#Degradado_sin_nombre_4"/><linearGradient id="Degradado_sin_nombre_4-123" x1="590.65" y1="591.7" x2="590.65" y2="730.82" xlink:href="#Degradado_sin_nombre_4"/><linearGradient id="Degradado_sin_nombre_5-73" x1="267.92" y1="523.04" x2="208.5" y2="493.41" xlink:href="#Degradado_sin_nombre_5"/><linearGradient id="Degradado_sin_nombre_4-124" x1="182.56" y1="406.2" x2="182.56" y2="545.33" xlink:href="#Degradado_sin_nombre_4"/><linearGradient id="Degradado_sin_nombre_4-125" x1="219.66" y1="526.78" x2="219.66" y2="665.9" xlink:href="#Degradado_sin_nombre_4"/></defs><g id="logo_rejilla" data-name="logo rejilla"><g class="cls-2"><rect class="cls-3" x="-14.43" y="65.15" width="34.93" height="34.93"/><path class="cls-4" d="M20.38,65.27V100H-14.31V65.27H20.38m.25-.25H-14.56V100.2H20.63V65Z"/><line class="cls-5" x1="-49.74" y1="100.2" x2="20.63" y2="65.02"/><line class="cls-5" x1="-49.74" y1="65.02" x2="20.63" y2="100.2"/><rect class="cls-3" x="-14.43" y="100.33" width="34.93" height="34.93"/><path class="cls-4" d="M20.38,100.45v34.69H-14.31V100.45H20.38m.25-.25H-14.56v35.19H20.63V100.2Z"/><line class="cls-5" x1="-49.74" y1="135.39" x2="20.63" y2="100.2"/><line class="cls-5" x1="-49.74" y1="100.2" x2="20.63" y2="135.39"/><rect class="cls-3" x="-14.43" y="135.51" width="34.93" height="34.93"/><path class="cls-4" d="M20.38,135.64v34.68H-14.31V135.64H20.38m.25-.25H-14.56v35.18H20.63V135.39Z"/><line class="cls-5" x1="-49.74" y1="170.57" x2="20.63" y2="135.39"/><line class="cls-5" x1="-49.74" y1="135.39" x2="20.63" y2="170.57"/><rect class="cls-3" x="-14.43" y="170.7" width="34.93" height="34.93"/><path class="cls-4" d="M20.38,170.82v34.69H-14.31V170.82H20.38m.25-.25H-14.56v35.19H20.63V170.57Z"/><line class="cls-5" x1="-49.74" y1="205.76" x2="20.63" y2="170.57"/><line class="cls-5" x1="-49.74" y1="170.57" x2="20.63" y2="205.76"/><rect class="cls-3" x="-14.43" y="205.88" width="34.93" height="34.93"/><path class="cls-4" d="M20.38,206v34.68H-14.31V206H20.38m.25-.25H-14.56v35.18H20.63V205.76Z"/><line class="cls-5" x1="-49.74" y1="240.94" x2="20.63" y2="205.76"/><line class="cls-5" x1="-49.74" y1="205.76" x2="20.63" y2="240.94"/><rect class="cls-3" x="-14.43" y="241.06" width="34.93" height="34.93"/><path class="cls-4" d="M20.38,241.19v34.68H-14.31V241.19H20.38m.25-.25H-14.56v35.18H20.63V240.94Z"/><line class="cls-5" x1="-49.74" y1="276.12" x2="20.63" y2="240.94"/><line class="cls-5" x1="-49.74" y1="240.94" x2="20.63" y2="276.12"/><rect class="cls-3" x="-14.43" y="276.25" width="34.93" height="34.93"/><path class="cls-4" d="M20.38,276.37v34.69H-14.31V276.37H20.38m.25-.25H-14.56v35.19H20.63V276.12Z"/><line class="cls-5" x1="-49.74" y1="311.31" x2="20.63" y2="276.12"/><line class="cls-5" x1="-49.74" y1="276.12" x2="20.63" y2="311.31"/><rect class="cls-3" x="-14.43" y="311.43" width="34.93" height="34.93"/><path class="cls-4" d="M20.38,311.56v34.68H-14.31V311.56H20.38m.25-.25H-14.56v35.18H20.63V311.31Z"/><line class="cls-5" x1="-49.74" y1="346.49" x2="20.63" y2="311.31"/><line class="cls-5" x1="-49.74" y1="311.31" x2="20.63" y2="346.49"/><rect class="cls-3" x="-14.43" y="346.61" width="34.93" height="34.93"/><path class="cls-4" d="M20.38,346.74v34.68H-14.31V346.74H20.38m.25-.25H-14.56v35.18H20.63V346.49Z"/><line class="cls-5" x1="-49.74" y1="381.67" x2="20.63" y2="346.49"/><line class="cls-5" x1="-49.74" y1="346.49" x2="20.63" y2="381.67"/><rect class="cls-3" x="-14.43" y="381.8" width="34.93" height="34.93"/><path class="cls-4" d="M20.38,381.92v34.69H-14.31V381.92H20.38m.25-.25H-14.56v35.19H20.63V381.67Z"/><line class="cls-5" x1="-49.74" y1="416.86" x2="20.63" y2="381.67"/><line class="cls-5" x1="-49.74" y1="381.67" x2="20.63" y2="416.86"/><rect class="cls-3" x="-14.43" y="416.98" width="34.93" height="34.93"/><path class="cls-4" d="M20.38,417.11v34.68H-14.31V417.11H20.38m.25-.25H-14.56V452H20.63V416.86Z"/><line class="cls-5" x1="-49.74" y1="452.04" x2="20.63" y2="416.86"/><line class="cls-5" x1="-49.74" y1="416.86" x2="20.63" y2="452.04"/><rect class="cls-3" x="-14.43" y="452.17" width="34.93" height="34.93"/><path class="cls-4" d="M20.38,452.29V487H-14.31V452.29H20.38m.25-.25H-14.56v35.18H20.63V452Z"/><line class="cls-5" x1="-49.74" y1="487.22" x2="20.63" y2="452.04"/><line class="cls-5" x1="-49.74" y1="452.04" x2="20.63" y2="487.22"/><rect class="cls-3" x="-14.43" y="487.35" width="34.93" height="34.93"/><path class="cls-4" d="M20.38,487.47v34.69H-14.31V487.47H20.38m.25-.25H-14.56v35.19H20.63V487.22Z"/><line class="cls-5" x1="-49.74" y1="522.41" x2="20.63" y2="487.22"/><line class="cls-5" x1="-49.74" y1="487.22" x2="20.63" y2="522.41"/><rect class="cls-3" x="-14.43" y="522.53" width="34.93" height="34.93"/><path class="cls-4" d="M20.38,522.66v34.68H-14.31V522.66H20.38m.25-.25H-14.56v35.18H20.63V522.41Z"/><line class="cls-5" x1="-49.74" y1="557.59" x2="20.63" y2="522.41"/><line class="cls-5" x1="-49.74" y1="522.41" x2="20.63" y2="557.59"/><rect class="cls-3" x="-14.43" y="557.72" width="34.93" height="34.93"/><path class="cls-4" d="M20.38,557.84v34.69H-14.31V557.84H20.38m.25-.25H-14.56v35.19H20.63V557.59Z"/><line class="cls-5" x1="-49.74" y1="592.78" x2="20.63" y2="557.59"/><line class="cls-5" x1="-49.74" y1="557.59" x2="20.63" y2="592.78"/><rect class="cls-3" x="-14.43" y="592.9" width="34.93" height="34.93"/><path class="cls-4" d="M20.38,593v34.68H-14.31V593H20.38m.25-.25H-14.56V628H20.63V592.78Z"/><line class="cls-5" x1="-49.74" y1="627.96" x2="20.63" y2="592.78"/><line class="cls-5" x1="-49.74" y1="592.78" x2="20.63" y2="627.96"/><rect class="cls-3" x="-14.43" y="-5.22" width="34.93" height="34.93"/><path class="cls-4" d="M20.38-5.1V29.59H-14.31V-5.1H20.38m.25-.25H-14.56V29.84H20.63V-5.35Z"/><line class="cls-5" x1="-49.74" y1="29.84" x2="20.63" y2="-5.35"/><line class="cls-5" x1="-49.74" y1="-5.35" x2="20.63" y2="29.84"/><rect class="cls-3" x="-14.43" y="29.96" width="34.93" height="34.93"/><path class="cls-4" d="M20.38,30.09V64.77H-14.31V30.09H20.38m.25-.25H-14.56V65H20.63V29.84Z"/><line class="cls-5" x1="-49.74" y1="65.02" x2="20.63" y2="29.84"/><line class="cls-5" x1="-49.74" y1="29.84" x2="20.63" y2="65.02"/></g></g><g id="Capa_2" data-name="Capa 2"><polygon class="cls-1" points="1170.73 424.39 1112.19 453.66 1112.19 556.1 1170.73 526.83 1170.73 424.39"/><polygon class="cls-1" points="1287.81 526.83 1346.34 497.56 1346.34 395.12 1287.81 424.39 1287.81 526.83"/><polygon class="cls-1" points="2224.39 570.73 2282.93 541.46 2282.93 439.02 2224.39 468.29 2224.39 570.73"/><polygon class="cls-1" points="2165.85 380.49 2224.39 351.22 2224.39 248.78 2165.85 278.05 2165.85 380.49"/><polygon class="cls-1" points="936.59 585.37 995.12 556.1 995.12 453.66 936.59 482.93 936.59 585.37"/><polygon class="cls-1" points="585.37 321.95 526.83 351.22 526.83 453.66 585.37 424.39 585.37 321.95"/><polygon class="cls-1" points="936.59 263.42 878.05 292.68 878.05 395.12 936.59 365.85 936.59 263.42"/><polygon class="cls-1" points="409.76 351.22 351.22 380.49 351.22 482.93 409.76 453.66 409.76 351.22"/><polygon class="cls-1" points="175.61 512.2 234.15 482.93 234.15 380.49 175.61 409.76 175.61 512.2"/><polygon class="cls-1" points="1229.27 117.07 1229.27 14.63 1170.73 43.9 1170.73 146.34 1229.27 117.07"/><polygon class="cls-1" points="1112.19 234.15 1053.66 263.42 1053.66 365.85 1112.19 336.58 1112.19 234.15"/><polygon class="cls-1" points="2107.32 190.24 2165.85 160.98 2165.85 58.54 2107.32 87.81 2107.32 190.24"/><polygon class="cls-1" points="2341.46 131.71 2341.46 29.27 2282.93 58.54 2282.93 160.98 2341.46 131.71"/><polygon class="cls-1" points="760.98 292.68 702.44 321.95 702.44 424.39 760.98 395.12 760.98 292.68"/><polygon class="cls-1" points="1463.41 278.05 1463.41 175.61 1404.88 204.88 1404.88 307.32 1463.41 278.05"/><polygon class="cls-1" points="1521.95 365.85 1463.41 395.12 1463.41 497.56 1521.95 468.29 1521.95 365.85"/><polygon class="cls-1" points="995.12 175.61 1053.66 146.34 1053.66 43.9 995.12 73.17 995.12 175.61"/><polygon class="cls-1" points="1697.56 336.58 1639.02 365.85 1639.02 468.29 1697.56 439.02 1697.56 336.58"/><polygon class="cls-1" points="1990.24 190.24 1990.24 87.81 1931.71 117.07 1931.71 219.51 1990.24 190.24"/><polygon class="cls-1" points="1814.63 219.51 1814.63 117.07 1756.1 146.34 1756.1 248.78 1814.63 219.51"/><polygon class="cls-1" points="1639.02 248.78 1639.02 146.34 1580.49 175.61 1580.49 278.05 1639.02 248.78"/><polygon class="cls-1" points="175.61 292.68 175.61 190.24 117.07 219.51 117.07 321.95 175.61 292.68"/><polygon class="cls-1" points="351.22 263.42 351.22 160.98 292.68 190.24 292.68 292.68 351.22 263.42"/><polygon class="cls-1" points="1873.17 307.32 1814.63 336.58 1814.63 439.02 1873.17 409.76 1873.17 307.32"/><polygon class="cls-1" points="526.83 234.15 526.83 131.71 468.29 160.98 468.29 263.42 526.83 234.15"/><polygon class="cls-1" points="2048.78 278.05 1990.24 307.32 1990.24 409.76 2048.78 380.49 2048.78 278.05"/><polygon class="cls-1" points="878.05 175.61 878.05 73.17 819.51 102.44 819.51 204.88 878.05 175.61"/><polygon class="cls-1" points="702.44 204.88 702.44 102.44 643.9 131.71 643.9 234.15 702.44 204.88"/><polygon class="cls-1" points="1287.81 307.32 1287.81 204.88 1229.27 234.15 1229.27 336.58 1287.81 307.32"/><polygon class="cls-1" points="2341.46 351.22 2400 321.95 2400 219.51 2341.46 248.78 2341.46 351.22"/><polygon class="cls-1" points="1697.56 556.1 1697.56 600 1756.1 600 1756.1 526.83 1697.56 556.1"/><polygon class="cls-1" points="58.54 409.76 0 439.02 0 541.46 58.54 512.2 58.54 409.76"/><polygon class="cls-1" points="468.29 43.9 468.29 0 409.76 0 409.76 73.17 468.29 43.9"/><polygon class="cls-1" points="292.68 73.17 292.68 0 234.15 0 234.15 102.44 292.68 73.17"/><polygon class="cls-1" points="819.51 482.93 760.98 512.2 760.98 600 790.24 600 819.51 585.37 819.51 482.93"/><polygon class="cls-1" points="1873.17 526.83 1873.17 600 1931.71 600 1931.71 497.56 1873.17 526.83"/><polygon class="cls-1" points="58.54 131.71 117.07 102.44 117.07 0 58.54 29.27 58.54 131.71"/><polygon class="cls-1" points="2107.32 468.29 2048.78 497.56 2048.78 600 2107.32 570.73 2107.32 468.29"/><polygon class="cls-1" points="409.76 570.73 409.76 600 468.29 600 468.29 541.46 409.76 570.73"/><polygon class="cls-1" points="1931.71 0 1873.17 0 1873.17 29.27 1931.71 0"/><polygon class="cls-1" points="234.15 600 292.68 600 292.68 570.73 234.15 600"/><polygon class="cls-1" points="1756.1 29.27 1756.1 0 1697.56 0 1697.56 58.54 1756.1 29.27"/><polygon class="cls-1" points="585.37 541.46 585.37 600 643.9 600 643.9 512.2 585.37 541.46"/><polygon class="cls-1" points="1346.34 117.07 1404.88 87.81 1404.88 0 1375.61 0 1346.34 14.63 1346.34 117.07"/><polygon class="cls-1" points="1580.49 58.54 1580.49 0 1521.95 0 1521.95 87.81 1580.49 58.54"/><polygon class="cls-1" points="790.24 0 760.98 0 760.98 14.63 790.24 0"/><polygon class="cls-1" points="643.9 14.63 643.9 0 585.37 0 585.37 43.9 643.9 14.63"/><polygon class="cls-1" points="1375.61 600 1404.88 600 1404.88 585.37 1375.61 600"/><polygon class="cls-1" points="1521.95 585.37 1521.95 600 1580.49 600 1580.49 556.1 1521.95 585.37"/><polygon class="cls-6" points="526.83 234.15 468.29 263.42 526.83 292.68 526.83 234.15"/><polygon class="cls-7" points="526.83 292.68 585.37 263.42 585.37 102.44 526.83 131.71 526.83 234.15 526.83 292.68"/><polygon class="cls-8" points="585.37 102.44 526.83 73.17 468.29 102.44 526.83 131.71 585.37 102.44"/><polygon class="cls-9" points="526.83 292.68 468.29 263.42 468.29 321.95 526.83 292.68"/><polygon class="cls-10" points="468.29 263.42 468.29 160.98 409.76 131.71 409.76 292.68 468.29 263.42"/><polygon class="cls-9" points="468.29 263.42 409.76 292.68 468.29 321.95 468.29 263.42"/><polygon class="cls-10" points="468.29 263.42 409.76 292.68 468.29 321.95 468.29 263.42"/><polygon class="cls-11" points="468.29 160.98 526.83 131.71 468.29 102.44 409.76 131.71 468.29 160.98"/><polygon class="cls-12" points="702.44 204.88 643.9 234.15 702.44 263.42 702.44 204.88"/><polygon class="cls-7" points="702.44 263.42 760.98 234.15 760.98 73.17 702.44 102.44 702.44 204.88 702.44 263.42"/><polygon class="cls-8" points="760.98 73.17 702.44 43.9 643.9 73.17 702.44 102.44 760.98 73.17"/><polygon class="cls-9" points="702.44 263.42 643.9 234.15 643.9 292.68 702.44 263.42"/><polygon class="cls-13" points="643.9 234.15 643.9 131.71 585.37 102.44 585.37 263.42 643.9 234.15"/><polygon class="cls-9" points="643.9 234.15 585.37 263.42 643.9 292.68 643.9 234.15"/><polygon class="cls-13" points="643.9 234.15 585.37 263.42 643.9 292.68 643.9 234.15"/><polygon class="cls-11" points="643.9 131.71 702.44 102.44 643.9 73.17 585.37 102.44 643.9 131.71"/><polygon class="cls-14" points="351.22 263.42 292.68 292.68 351.22 321.95 351.22 263.42"/><polygon class="cls-7" points="351.22 321.95 409.76 292.68 409.76 131.71 351.22 160.98 351.22 263.42 351.22 321.95"/><polygon class="cls-8" points="409.76 131.71 351.22 102.44 292.68 131.71 351.22 160.98 409.76 131.71"/><polygon class="cls-9" points="292.68 292.68 292.68 351.22 351.22 321.95 292.68 292.68"/><polygon class="cls-15" points="292.68 292.68 292.68 190.24 234.15 160.98 234.15 321.95 292.68 292.68"/><polygon class="cls-9" points="234.15 321.95 292.68 351.22 292.68 292.68 234.15 321.95"/><polygon class="cls-15" points="234.15 321.95 292.68 351.22 292.68 292.68 234.15 321.95"/><polygon class="cls-11" points="292.68 190.24 351.22 160.98 292.68 131.71 234.15 160.98 292.68 190.24"/><polygon class="cls-16" points="526.83 453.66 585.37 482.93 585.37 424.39 526.83 453.66"/><polygon class="cls-7" points="585.37 321.95 585.37 424.39 585.37 482.93 643.9 453.66 643.9 292.68 585.37 321.95"/><polygon class="cls-8" points="643.9 292.68 585.37 263.42 526.83 292.68 585.37 321.95 643.9 292.68"/><polygon class="cls-9" points="526.83 453.66 526.83 512.2 585.37 482.93 526.83 453.66"/><polygon class="cls-17" points="468.29 321.95 468.29 482.93 526.83 453.66 526.83 351.22 468.29 321.95"/><polygon class="cls-9" points="468.29 482.93 526.83 512.2 526.83 453.66 468.29 482.93"/><polygon class="cls-17" points="468.29 482.93 526.83 512.2 526.83 453.66 468.29 482.93"/><polygon class="cls-11" points="526.83 351.22 585.37 321.95 526.83 292.68 468.29 321.95 526.83 351.22"/><polygon class="cls-18" points="468.29 43.9 409.76 73.17 468.29 102.44 468.29 43.9"/><polygon class="cls-7" points="468.29 102.44 526.83 73.17 526.83 0 468.29 0 468.29 43.9 468.29 102.44"/><polygon class="cls-9" points="468.29 102.44 409.76 73.17 409.76 131.71 468.29 102.44"/><polygon class="cls-19" points="409.76 73.17 409.76 0 351.22 0 351.22 102.44 409.76 73.17"/><polygon class="cls-9" points="409.76 73.17 351.22 102.44 409.76 131.71 409.76 73.17"/><polygon class="cls-19" points="409.76 73.17 351.22 102.44 409.76 131.71 409.76 73.17"/><polygon class="cls-20" points="292.68 73.17 234.15 102.44 292.68 131.71 292.68 73.17"/><polygon class="cls-7" points="292.68 131.71 351.22 102.44 351.22 0 292.68 0 292.68 73.17 292.68 131.71"/><polygon class="cls-9" points="292.68 131.71 234.15 102.44 234.15 160.98 292.68 131.71"/><polygon class="cls-21" points="234.15 102.44 234.15 0 175.61 0 175.61 131.71 234.15 102.44"/><polygon class="cls-9" points="234.15 102.44 175.61 131.71 234.15 160.98 234.15 102.44"/><polygon class="cls-21" points="234.15 102.44 175.61 131.71 234.15 160.98 234.15 102.44"/><polygon class="cls-22" points="702.44 424.39 760.98 453.66 760.98 395.12 702.44 424.39"/><polygon class="cls-7" points="760.98 292.68 760.98 395.12 760.98 453.66 819.51 424.39 819.51 263.42 760.98 292.68"/><polygon class="cls-8" points="819.51 263.42 760.98 234.15 702.44 263.42 760.98 292.68 819.51 263.42"/><polygon class="cls-9" points="702.44 424.39 702.44 482.93 760.98 453.66 702.44 424.39"/><polygon class="cls-23" points="643.9 292.68 643.9 453.66 702.44 424.39 702.44 321.95 643.9 292.68"/><polygon class="cls-9" points="643.9 453.66 702.44 482.93 702.44 424.39 643.9 453.66"/><polygon class="cls-23" points="643.9 453.66 702.44 482.93 702.44 424.39 643.9 453.66"/><polygon class="cls-11" points="702.44 321.95 760.98 292.68 702.44 263.42 643.9 292.68 702.44 321.95"/><polygon class="cls-24" points="643.9 14.63 585.37 43.9 643.9 73.17 643.9 14.63"/><polygon class="cls-7" points="643.9 73.17 702.44 43.9 702.44 0 643.9 0 643.9 14.63 643.9 73.17"/><polygon class="cls-9" points="643.9 73.17 585.37 43.9 585.37 102.44 643.9 73.17"/><polygon class="cls-25" points="585.37 43.9 585.37 0 526.83 0 526.83 73.17 585.37 43.9"/><polygon class="cls-9" points="585.37 43.9 526.83 73.17 585.37 102.44 585.37 43.9"/><polygon class="cls-26" points="585.37 43.9 526.83 73.17 585.37 102.44 585.37 43.9"/><polygon class="cls-27" points="351.22 482.93 409.76 512.2 409.76 453.66 351.22 482.93"/><polygon class="cls-7" points="409.76 351.22 409.76 453.66 409.76 512.2 468.29 482.93 468.29 321.95 409.76 351.22"/><polygon class="cls-8" points="468.29 321.95 409.76 292.68 351.22 321.95 409.76 351.22 468.29 321.95"/><polygon class="cls-9" points="351.22 482.93 351.22 541.46 409.76 512.2 351.22 482.93"/><polygon class="cls-28" points="292.68 351.22 292.68 512.2 351.22 482.93 351.22 380.49 292.68 351.22"/><polygon class="cls-9" points="292.68 512.2 351.22 541.46 351.22 482.93 292.68 512.2"/><polygon class="cls-28" points="292.68 512.2 351.22 541.46 351.22 482.93 292.68 512.2"/><polygon class="cls-11" points="409.76 351.22 351.22 321.95 292.68 351.22 351.22 380.49 409.76 351.22"/><polygon class="cls-29" points="117.07 321.95 175.61 351.22 175.61 292.68 117.07 321.95"/><polygon class="cls-7" points="175.61 351.22 234.15 321.95 234.15 160.98 175.61 190.24 175.61 292.68 175.61 351.22"/><polygon class="cls-8" points="234.15 160.98 175.61 131.71 117.07 160.98 175.61 190.24 234.15 160.98"/><polygon class="cls-9" points="117.07 321.95 117.07 380.49 175.61 351.22 117.07 321.95"/><polygon class="cls-30" points="117.07 219.51 58.54 190.24 58.54 351.22 117.07 321.95 117.07 219.51"/><polygon class="cls-9" points="58.54 351.22 117.07 380.49 117.07 321.95 58.54 351.22"/><polygon class="cls-30" points="58.54 351.22 117.07 380.49 117.07 321.95 58.54 351.22"/><polygon class="cls-11" points="117.07 219.51 175.61 190.24 117.07 160.98 58.54 190.24 117.07 219.51"/><polygon class="cls-31" points="117.07 102.44 58.54 131.71 117.07 160.98 117.07 102.44"/><polygon class="cls-7" points="117.07 160.98 175.61 131.71 175.61 0 117.07 0 117.07 102.44 117.07 160.98"/><polygon class="cls-9" points="117.07 160.98 58.54 131.71 58.54 190.24 117.07 160.98"/><polygon class="cls-32" points="58.54 131.71 58.54 29.27 0 0 0 160.98 58.54 131.71"/><polygon class="cls-9" points="58.54 131.71 0 160.98 58.54 190.24 58.54 131.71"/><polygon class="cls-32" points="58.54 131.71 0 160.98 58.54 190.24 58.54 131.71"/><polygon class="cls-11" points="117.07 0 0 0 58.54 29.27 117.07 0"/><polygon class="cls-33" points="175.61 512.2 234.15 541.46 234.15 482.93 175.61 512.2"/><polygon class="cls-7" points="292.68 351.22 234.15 380.49 234.15 482.93 234.15 541.46 292.68 512.2 292.68 351.22"/><polygon class="cls-8" points="175.61 351.22 234.15 380.49 292.68 351.22 234.15 321.95 175.61 351.22"/><polygon class="cls-9" points="175.61 570.73 234.15 541.46 175.61 512.2 175.61 570.73"/><polygon class="cls-34" points="175.61 409.76 117.07 380.49 117.07 541.46 175.61 512.2 175.61 409.76"/><polygon class="cls-9" points="117.07 541.46 175.61 570.73 175.61 512.2 117.07 541.46"/><polygon class="cls-34" points="117.07 541.46 175.61 570.73 175.61 512.2 117.07 541.46"/><polygon class="cls-11" points="234.15 380.49 175.61 351.22 117.07 380.49 175.61 409.76 234.15 380.49"/><polygon class="cls-35" points="1404.88 87.81 1346.34 117.07 1404.88 146.34 1404.88 87.81"/><polygon class="cls-7" points="1404.88 146.34 1463.41 117.07 1463.41 0 1404.88 0 1404.88 87.81 1404.88 146.34"/><polygon class="cls-9" points="1404.88 146.34 1346.34 117.07 1346.34 175.61 1404.88 146.34"/><polygon class="cls-36" points="1346.34 117.07 1346.34 14.63 1317.07 0 1287.81 0 1287.81 146.34 1346.34 117.07"/><polygon class="cls-9" points="1346.34 117.07 1287.81 146.34 1346.34 175.61 1346.34 117.07"/><polygon class="cls-36" points="1346.34 117.07 1287.81 146.34 1346.34 175.61 1346.34 117.07"/><polygon class="cls-11" points="1375.61 0 1317.07 0 1346.34 14.63 1375.61 0"/><polygon class="cls-37" points="1229.27 175.61 1229.27 117.07 1170.73 146.34 1229.27 175.61"/><polygon class="cls-7" points="1229.27 117.07 1229.27 175.61 1287.81 146.34 1287.81 0 1258.54 0 1229.27 14.63 1229.27 117.07"/><polygon class="cls-8" points="1258.54 0 1200 0 1229.27 14.63 1258.54 0"/><polygon class="cls-9" points="1170.73 204.88 1229.27 175.61 1170.73 146.34 1170.73 204.88"/><polygon class="cls-38" points="1170.73 146.34 1170.73 43.9 1112.19 14.63 1112.19 175.61 1170.73 146.34"/><polygon class="cls-9" points="1170.73 146.34 1112.19 175.61 1170.73 204.88 1170.73 146.34"/><polygon class="cls-38" points="1170.73 146.34 1112.19 175.61 1170.73 204.88 1170.73 146.34"/><polygon class="cls-11" points="1170.73 43.9 1229.27 14.63 1200 0 1141.46 0 1112.19 14.63 1170.73 43.9"/><polygon class="cls-39" points="1463.41 278.05 1404.88 307.32 1463.41 336.58 1463.41 278.05"/><polygon class="cls-7" points="1463.41 336.58 1521.95 307.32 1521.95 146.34 1463.41 175.61 1463.41 278.05 1463.41 336.58"/><polygon class="cls-8" points="1521.95 146.34 1463.41 117.07 1404.88 146.34 1463.41 175.61 1521.95 146.34"/><polygon class="cls-9" points="1404.88 307.32 1404.88 365.85 1463.41 336.58 1404.88 307.32"/><polygon class="cls-40" points="1404.88 307.32 1404.88 204.88 1346.34 175.61 1346.34 336.58 1404.88 307.32"/><polygon class="cls-9" points="1346.34 336.58 1404.88 365.85 1404.88 307.32 1346.34 336.58"/><polygon class="cls-40" points="1346.34 336.58 1404.88 365.85 1404.88 307.32 1346.34 336.58"/><polygon class="cls-11" points="1404.88 204.88 1463.41 175.61 1404.88 146.34 1346.34 175.61 1404.88 204.88"/><polygon class="cls-9" points="1141.46 0 1112.19 0 1112.19 14.63 1141.46 0"/><polygon class="cls-9" points="1112.19 0 1082.93 0 1112.19 14.63 1112.19 0"/><polygon class="cls-41" points="1112.19 0 1082.93 0 1112.19 14.63 1112.19 0"/><polygon class="cls-42" points="1287.81 307.32 1229.27 336.58 1287.81 365.85 1287.81 307.32"/><polygon class="cls-7" points="1287.81 365.85 1346.34 336.58 1346.34 175.61 1287.81 204.88 1287.81 307.32 1287.81 365.85"/><polygon class="cls-8" points="1346.34 175.61 1287.81 146.34 1229.27 175.61 1287.81 204.88 1346.34 175.61"/><polygon class="cls-9" points="1229.27 336.58 1229.27 395.12 1287.81 365.85 1229.27 336.58"/><polygon class="cls-43" points="1229.27 336.58 1229.27 234.15 1170.73 204.88 1170.73 365.85 1229.27 336.58"/><polygon class="cls-9" points="1170.73 365.85 1229.27 395.12 1229.27 336.58 1170.73 365.85"/><polygon class="cls-43" points="1170.73 365.85 1229.27 395.12 1229.27 336.58 1170.73 365.85"/><polygon class="cls-11" points="1229.27 234.15 1287.81 204.88 1229.27 175.61 1170.73 204.88 1229.27 234.15"/><polygon class="cls-44" points="1053.66 146.34 995.12 175.61 1053.66 204.88 1053.66 146.34"/><polygon class="cls-7" points="1053.66 204.88 1112.19 175.61 1112.19 14.63 1053.66 43.9 1053.66 146.34 1053.66 204.88"/><polygon class="cls-8" points="1053.66 43.9 1112.19 14.63 1082.93 0 1024.39 0 995.12 14.63 1053.66 43.9"/><polygon class="cls-9" points="1053.66 204.88 995.12 175.61 995.12 234.15 1053.66 204.88"/><polygon class="cls-45" points="995.12 175.61 995.12 73.17 936.59 43.9 936.59 204.88 995.12 175.61"/><polygon class="cls-9" points="995.12 175.61 936.59 204.88 995.12 234.15 995.12 175.61"/><polygon class="cls-45" points="995.12 175.61 936.59 204.88 995.12 234.15 995.12 175.61"/><polygon class="cls-11" points="1053.66 43.9 995.12 14.63 936.59 43.9 995.12 73.17 1053.66 43.9"/><polygon class="cls-46" points="995.12 0 965.85 0 995.12 14.63 995.12 0"/><polygon class="cls-7" points="1024.39 0 995.12 0 995.12 14.63 1024.39 0"/><polygon class="cls-9" points="995.12 14.63 965.85 0 936.59 0 936.59 43.9 995.12 14.63"/><polygon class="cls-47" points="907.32 0 878.05 0 878.05 14.63 907.32 0"/><polygon class="cls-9" points="936.59 43.9 936.59 0 907.32 0 878.05 14.63 936.59 43.9"/><polygon class="cls-48" points="936.59 43.9 936.59 0 907.32 0 878.05 14.63 936.59 43.9"/><polygon class="cls-49" points="1053.66 365.85 1112.19 395.12 1112.19 336.58 1053.66 365.85"/><polygon class="cls-7" points="1112.19 336.58 1112.19 395.12 1170.73 365.85 1170.73 204.88 1112.19 234.15 1112.19 336.58"/><polygon class="cls-8" points="1170.73 204.88 1112.19 175.61 1053.66 204.88 1112.19 234.15 1170.73 204.88"/><polygon class="cls-9" points="1053.66 365.85 1053.66 424.39 1112.19 395.12 1053.66 365.85"/><polygon class="cls-50" points="995.12 234.15 995.12 395.12 1053.66 365.85 1053.66 263.42 995.12 234.15"/><polygon class="cls-9" points="995.12 395.12 1053.66 424.39 1053.66 365.85 995.12 395.12"/><polygon class="cls-50" points="995.12 395.12 1053.66 424.39 1053.66 365.85 995.12 395.12"/><polygon class="cls-11" points="1053.66 263.42 1112.19 234.15 1053.66 204.88 995.12 234.15 1053.66 263.42"/><polygon class="cls-51" points="878.05 234.15 878.05 175.61 819.51 204.88 878.05 234.15"/><polygon class="cls-7" points="878.05 175.61 878.05 234.15 936.59 204.88 936.59 43.9 878.05 73.17 878.05 175.61"/><polygon class="cls-8" points="936.59 43.9 878.05 14.63 819.51 43.9 878.05 73.17 936.59 43.9"/><polygon class="cls-9" points="819.51 263.42 878.05 234.15 819.51 204.88 819.51 263.42"/><polygon class="cls-52" points="819.51 204.88 819.51 102.44 760.98 73.17 760.98 234.15 819.51 204.88"/><polygon class="cls-9" points="819.51 204.88 760.98 234.15 819.51 263.42 819.51 204.88"/><polygon class="cls-52" points="819.51 204.88 760.98 234.15 819.51 263.42 819.51 204.88"/><polygon class="cls-11" points="819.51 102.44 878.05 73.17 819.51 43.9 760.98 73.17 819.51 102.44"/><polygon class="cls-53" points="819.51 43.9 819.51 0 790.24 0 760.98 14.63 819.51 43.9"/><polygon class="cls-7" points="878.05 14.63 878.05 0 819.51 0 819.51 43.9 878.05 14.63"/><polygon class="cls-9" points="819.51 43.9 760.98 14.63 760.98 73.17 819.51 43.9"/><polygon class="cls-54" points="760.98 14.63 760.98 0 702.44 0 702.44 43.9 760.98 14.63"/><polygon class="cls-9" points="760.98 14.63 702.44 43.9 760.98 73.17 760.98 14.63"/><polygon class="cls-55" points="760.98 14.63 702.44 43.9 760.98 73.17 760.98 14.63"/><polygon class="cls-56" points="878.05 395.12 936.59 424.39 936.59 365.85 878.05 395.12"/><polygon class="cls-7" points="936.59 263.42 936.59 365.85 936.59 424.39 995.12 395.12 995.12 234.15 936.59 263.42"/><polygon class="cls-8" points="995.12 234.15 936.59 204.88 878.05 234.15 936.59 263.42 995.12 234.15"/><polygon class="cls-9" points="878.05 395.12 878.05 453.66 936.59 424.39 878.05 395.12"/><polygon class="cls-57" points="819.51 263.42 819.51 424.39 878.05 395.12 878.05 292.68 819.51 263.42"/><polygon class="cls-9" points="819.51 424.39 878.05 453.66 878.05 395.12 819.51 424.39"/><polygon class="cls-57" points="819.51 424.39 878.05 453.66 878.05 395.12 819.51 424.39"/><polygon class="cls-11" points="878.05 292.68 936.59 263.42 878.05 234.15 819.51 263.42 878.05 292.68"/><polygon class="cls-58" points="1931.71 58.54 1931.71 0 1873.17 29.27 1931.71 58.54"/><polygon class="cls-7" points="1990.24 29.27 1990.24 0 1931.71 0 1931.71 58.54 1990.24 29.27"/><polygon class="cls-9" points="1931.71 58.54 1873.17 29.27 1873.17 87.81 1931.71 58.54"/><polygon class="cls-59" points="1873.17 29.27 1873.17 0 1814.63 0 1814.63 58.54 1873.17 29.27"/><polygon class="cls-9" points="1873.17 29.27 1814.63 58.54 1873.17 87.81 1873.17 29.27"/><polygon class="cls-59" points="1873.17 29.27 1814.63 58.54 1873.17 87.81 1873.17 29.27"/><polygon class="cls-60" points="2107.32 0 2048.78 0 2107.32 29.27 2107.32 0"/><polygon class="cls-7" points="2165.85 0 2107.32 0 2107.32 29.27 2165.85 0"/><polygon class="cls-9" points="2107.32 29.27 2048.78 0 2048.78 58.54 2107.32 29.27"/><polygon class="cls-61" points="2048.78 0 1990.24 0 1990.24 29.27 2048.78 0"/><polygon class="cls-9" points="2048.78 58.54 2048.78 0 1990.24 29.27 2048.78 58.54"/><polygon class="cls-61" points="2048.78 58.54 2048.78 0 1990.24 29.27 2048.78 58.54"/><polygon class="cls-62" points="1756.1 29.27 1697.56 58.54 1756.1 87.81 1756.1 29.27"/><polygon class="cls-7" points="1756.1 87.81 1814.63 58.54 1814.63 0 1756.1 0 1756.1 29.27 1756.1 87.81"/><polygon class="cls-9" points="1756.1 87.81 1697.56 58.54 1697.56 117.07 1756.1 87.81"/><polygon class="cls-63" points="1697.56 58.54 1697.56 0 1639.02 0 1639.02 87.81 1697.56 58.54"/><polygon class="cls-9" points="1697.56 58.54 1639.02 87.81 1697.56 117.07 1697.56 58.54"/><polygon class="cls-63" points="1697.56 58.54 1639.02 87.81 1697.56 117.07 1697.56 58.54"/><polygon class="cls-64" points="1990.24 248.78 1990.24 190.24 1931.71 219.51 1990.24 248.78"/><polygon class="cls-7" points="1990.24 190.24 1990.24 248.78 2048.78 219.51 2048.78 58.54 1990.24 87.81 1990.24 190.24"/><polygon class="cls-8" points="2048.78 58.54 1990.24 29.27 1931.71 58.54 1990.24 87.81 2048.78 58.54"/><polygon class="cls-9" points="1931.71 278.05 1990.24 248.78 1931.71 219.51 1931.71 278.05"/><polygon class="cls-65" points="1931.71 219.51 1931.71 117.07 1873.17 87.81 1873.17 248.78 1931.71 219.51"/><polygon class="cls-9" points="1931.71 219.51 1873.17 248.78 1931.71 278.05 1931.71 219.51"/><polygon class="cls-65" points="1931.71 219.51 1873.17 248.78 1931.71 278.05 1931.71 219.51"/><polygon class="cls-11" points="1931.71 117.07 1990.24 87.81 1931.71 58.54 1873.17 87.81 1931.71 117.07"/><polygon class="cls-66" points="2165.85 160.98 2107.32 190.24 2165.85 219.51 2165.85 160.98"/><polygon class="cls-7" points="2165.85 219.51 2224.39 190.24 2224.39 29.27 2165.85 58.54 2165.85 160.98 2165.85 219.51"/><polygon class="cls-8" points="2165.85 58.54 2224.39 29.27 2165.85 0 2107.32 29.27 2165.85 58.54"/><polygon class="cls-9" points="2165.85 219.51 2107.32 190.24 2107.32 248.78 2165.85 219.51"/><polygon class="cls-67" points="2107.32 190.24 2107.32 87.81 2048.78 58.54 2048.78 219.51 2107.32 190.24"/><polygon class="cls-9" points="2107.32 190.24 2048.78 219.51 2107.32 248.78 2107.32 190.24"/><polygon class="cls-67" points="2107.32 190.24 2048.78 219.51 2107.32 248.78 2107.32 190.24"/><polygon class="cls-11" points="2165.85 58.54 2107.32 29.27 2048.78 58.54 2107.32 87.81 2165.85 58.54"/><polygon class="cls-68" points="1814.63 219.51 1756.1 248.78 1814.63 278.05 1814.63 219.51"/><polygon class="cls-7" points="1814.63 278.05 1873.17 248.78 1873.17 87.81 1814.63 117.07 1814.63 219.51 1814.63 278.05"/><polygon class="cls-8" points="1873.17 87.81 1814.63 58.54 1756.1 87.81 1814.63 117.07 1873.17 87.81"/><polygon class="cls-9" points="1814.63 278.05 1756.1 248.78 1756.1 307.32 1814.63 278.05"/><polygon class="cls-69" points="1756.1 248.78 1756.1 146.34 1697.56 117.07 1697.56 278.05 1756.1 248.78"/><polygon class="cls-9" points="1756.1 248.78 1697.56 278.05 1756.1 307.32 1756.1 248.78"/><polygon class="cls-69" points="1756.1 248.78 1697.56 278.05 1756.1 307.32 1756.1 248.78"/><polygon class="cls-11" points="1756.1 146.34 1814.63 117.07 1756.1 87.81 1697.56 117.07 1756.1 146.34"/><polygon class="cls-70" points="1580.49 58.54 1521.95 87.81 1580.49 117.07 1580.49 58.54"/><polygon class="cls-7" points="1580.49 117.07 1639.02 87.81 1639.02 0 1580.49 0 1580.49 58.54 1580.49 117.07"/><polygon class="cls-9" points="1580.49 117.07 1521.95 87.81 1521.95 146.34 1580.49 117.07"/><polygon class="cls-71" points="1521.95 87.81 1521.95 0 1463.41 0 1463.41 117.07 1521.95 87.81"/><polygon class="cls-9" points="1521.95 87.81 1463.41 117.07 1521.95 146.34 1521.95 87.81"/><polygon class="cls-71" points="1521.95 87.81 1463.41 117.07 1521.95 146.34 1521.95 87.81"/><polygon class="cls-72" points="1639.02 248.78 1580.49 278.05 1639.02 307.32 1639.02 248.78"/><polygon class="cls-7" points="1639.02 307.32 1697.56 278.05 1697.56 117.07 1639.02 146.34 1639.02 248.78 1639.02 307.32"/><polygon class="cls-8" points="1697.56 117.07 1639.02 87.81 1580.49 117.07 1639.02 146.34 1697.56 117.07"/><polygon class="cls-9" points="1639.02 307.32 1580.49 278.05 1580.49 336.58 1639.02 307.32"/><polygon class="cls-73" points="1580.49 278.05 1580.49 175.61 1521.95 146.34 1521.95 307.32 1580.49 278.05"/><polygon class="cls-9" points="1580.49 278.05 1521.95 307.32 1580.49 336.58 1580.49 278.05"/><polygon class="cls-73" points="1580.49 278.05 1521.95 307.32 1580.49 336.58 1580.49 278.05"/><polygon class="cls-11" points="1580.49 175.61 1639.02 146.34 1580.49 117.07 1521.95 146.34 1580.49 175.61"/><polygon class="cls-9" points="2282.93 0 2224.39 0 2224.39 29.27 2282.93 0"/><polygon class="cls-9" points="2224.39 0 2165.85 0 2224.39 29.27 2224.39 0"/><polygon class="cls-74" points="2224.39 0 2165.85 0 2224.39 29.27 2224.39 0"/><polygon class="cls-75" points="2341.46 190.24 2341.46 131.71 2282.93 160.98 2341.46 190.24"/><polygon class="cls-7" points="2341.46 131.71 2341.46 190.24 2400 160.98 2400 0 2341.46 29.27 2341.46 131.71"/><polygon class="cls-8" points="2400 0 2282.93 0 2341.46 29.27 2400 0"/><polygon class="cls-9" points="2282.93 219.51 2341.46 190.24 2282.93 160.98 2282.93 219.51"/><polygon class="cls-76" points="2282.93 160.98 2282.93 58.54 2224.39 29.27 2224.39 190.24 2282.93 160.98"/><polygon class="cls-9" points="2224.39 190.24 2282.93 219.51 2282.93 160.98 2224.39 190.24"/><polygon class="cls-76" points="2224.39 190.24 2282.93 219.51 2282.93 160.98 2224.39 190.24"/><polygon class="cls-11" points="2282.93 58.54 2341.46 29.27 2282.93 0 2224.39 29.27 2282.93 58.54"/><polygon class="cls-7" points="468.29 541.46 468.29 600 526.83 600 526.83 512.2 468.29 541.46"/><polygon class="cls-8" points="409.76 512.2 468.29 541.46 526.83 512.2 468.29 482.93 409.76 512.2"/><polygon class="cls-77" points="351.22 541.46 351.22 600 409.76 600 409.76 570.73 351.22 541.46"/><polygon class="cls-11" points="351.22 541.46 409.76 570.73 468.29 541.46 409.76 512.2 351.22 541.46"/><polygon class="cls-7" points="292.68 570.73 292.68 600 351.22 600 351.22 541.46 292.68 570.73"/><polygon class="cls-8" points="234.15 541.46 292.68 570.73 351.22 541.46 292.68 512.2 234.15 541.46"/><polygon class="cls-78" points="175.61 600 234.15 600 175.61 570.73 175.61 600"/><polygon class="cls-11" points="234.15 541.46 175.61 570.73 234.15 600 292.68 570.73 234.15 541.46"/><polygon class="cls-7" points="643.9 512.2 643.9 600 702.44 600 702.44 482.93 643.9 512.2"/><polygon class="cls-8" points="585.37 482.93 643.9 512.2 702.44 482.93 643.9 453.66 585.37 482.93"/><polygon class="cls-79" points="526.83 512.2 526.83 600 585.37 600 585.37 541.46 526.83 512.2"/><polygon class="cls-11" points="526.83 512.2 585.37 541.46 643.9 512.2 585.37 482.93 526.83 512.2"/><polygon class="cls-7" points="117.07 600 175.61 600 175.61 570.73 117.07 600"/><polygon class="cls-8" points="117.07 541.46 58.54 570.73 117.07 600 175.61 570.73 117.07 541.46"/><polygon class="cls-11" points="0 600 117.07 600 58.54 570.73 0 600"/><polygon class="cls-7" points="58.54 190.24 0 219.51 0 380.49 58.54 351.22 58.54 190.24"/><polygon class="cls-8" points="0 160.98 0 219.51 58.54 190.24 0 160.98"/><polygon class="cls-80" points="58.54 512.2 0 541.46 58.54 570.73 58.54 512.2"/><polygon class="cls-7" points="58.54 409.76 58.54 512.2 58.54 570.73 117.07 541.46 117.07 380.49 58.54 409.76"/><polygon class="cls-8" points="117.07 380.49 58.54 351.22 0 380.49 58.54 409.76 117.07 380.49"/><polygon class="cls-9" points="0 541.46 0 600 58.54 570.73 0 541.46"/><polygon class="cls-11" points="0 380.49 0 439.02 58.54 409.76 0 380.49"/><polygon class="cls-7" points="1258.54 600 1287.81 600 1287.81 585.37 1258.54 600"/><polygon class="cls-8" points="1229.27 556.1 1170.73 585.37 1200 600 1258.54 600 1287.81 585.37 1229.27 556.1"/><polygon class="cls-11" points="1141.46 600 1200 600 1170.73 585.37 1141.46 600"/><polygon class="cls-8" points="1024.39 600 1082.93 600 1053.66 585.37 1024.39 600"/><polygon class="cls-81" points="1287.81 526.83 1346.34 556.1 1346.34 497.56 1287.81 526.83"/><polygon class="cls-7" points="1404.88 365.85 1346.34 395.12 1346.34 497.56 1346.34 556.1 1404.88 526.83 1404.88 365.85"/><polygon class="cls-8" points="1287.81 365.85 1346.34 395.12 1404.88 365.85 1346.34 336.58 1287.81 365.85"/><polygon class="cls-9" points="1287.81 585.37 1346.34 556.1 1287.81 526.83 1287.81 585.37"/><polygon class="cls-82" points="1287.81 424.39 1229.27 395.12 1229.27 556.1 1287.81 526.83 1287.81 424.39"/><polygon class="cls-9" points="1229.27 556.1 1287.81 585.37 1287.81 526.83 1229.27 556.1"/><polygon class="cls-82" points="1229.27 556.1 1287.81 585.37 1287.81 526.83 1229.27 556.1"/><polygon class="cls-11" points="1229.27 395.12 1287.81 424.39 1346.34 395.12 1287.81 365.85 1229.27 395.12"/><polygon class="cls-83" points="1112.19 556.1 1170.73 585.37 1170.73 526.83 1112.19 556.1"/><polygon class="cls-7" points="1170.73 424.39 1170.73 526.83 1170.73 585.37 1229.27 556.1 1229.27 395.12 1170.73 424.39"/><polygon class="cls-8" points="1112.19 395.12 1170.73 424.39 1229.27 395.12 1170.73 365.85 1112.19 395.12"/><polygon class="cls-9" points="1112.19 556.1 1112.19 600 1141.46 600 1170.73 585.37 1112.19 556.1"/><polygon class="cls-84" points="1053.66 424.39 1053.66 585.37 1112.19 556.1 1112.19 453.66 1053.66 424.39"/><polygon class="cls-9" points="1053.66 585.37 1082.93 600 1112.19 600 1112.19 556.1 1053.66 585.37"/><polygon class="cls-84" points="1053.66 585.37 1082.93 600 1112.19 600 1112.19 556.1 1053.66 585.37"/><polygon class="cls-11" points="1170.73 424.39 1112.19 395.12 1053.66 424.39 1112.19 453.66 1170.73 424.39"/><polygon class="cls-85" points="936.59 585.37 965.85 600 995.12 600 995.12 556.1 936.59 585.37"/><polygon class="cls-7" points="1053.66 424.39 995.12 453.66 995.12 556.1 995.12 600 1024.39 600 1053.66 585.37 1053.66 424.39"/><polygon class="cls-8" points="936.59 424.39 995.12 453.66 1053.66 424.39 995.12 395.12 936.59 424.39"/><polygon class="cls-9" points="936.59 600 965.85 600 936.59 585.37 936.59 600"/><polygon class="cls-86" points="936.59 482.93 878.05 453.66 878.05 600 907.32 600 936.59 585.37 936.59 482.93"/><polygon class="cls-9" points="907.32 600 936.59 600 936.59 585.37 907.32 600"/><polygon class="cls-87" points="907.32 600 936.59 600 936.59 585.37 907.32 600"/><polygon class="cls-11" points="878.05 453.66 936.59 482.93 995.12 453.66 936.59 424.39 878.05 453.66"/><polygon class="cls-88" points="790.24 600 819.51 600 819.51 585.37 790.24 600"/><polygon class="cls-7" points="819.51 482.93 819.51 585.37 819.51 600 878.05 600 878.05 453.66 819.51 482.93"/><polygon class="cls-8" points="760.98 453.66 819.51 482.93 878.05 453.66 819.51 424.39 760.98 453.66"/><polygon class="cls-89" points="702.44 482.93 702.44 600 760.98 600 760.98 512.2 702.44 482.93"/><polygon class="cls-11" points="702.44 482.93 760.98 512.2 819.51 482.93 760.98 453.66 702.44 482.93"/><polygon class="cls-7" points="1756.1 526.83 1756.1 600 1814.63 600 1814.63 497.56 1756.1 526.83"/><polygon class="cls-8" points="1697.56 497.56 1756.1 526.83 1814.63 497.56 1756.1 468.29 1697.56 497.56"/><polygon class="cls-90" points="1639.02 526.83 1639.02 600 1697.56 600 1697.56 556.1 1639.02 526.83"/><polygon class="cls-11" points="1639.02 526.83 1697.56 556.1 1756.1 526.83 1697.56 497.56 1639.02 526.83"/><polygon class="cls-7" points="1580.49 556.1 1580.49 600 1639.02 600 1639.02 526.83 1580.49 556.1"/><polygon class="cls-8" points="1521.95 526.83 1580.49 556.1 1639.02 526.83 1580.49 497.56 1521.95 526.83"/><polygon class="cls-91" points="1463.41 556.1 1463.41 600 1521.95 600 1521.95 585.37 1463.41 556.1"/><polygon class="cls-11" points="1463.41 556.1 1521.95 585.37 1580.49 556.1 1521.95 526.83 1463.41 556.1"/><polygon class="cls-7" points="1931.71 497.56 1931.71 600 1990.24 600 1990.24 468.29 1931.71 497.56"/><polygon class="cls-8" points="1873.17 468.29 1931.71 497.56 1990.24 468.29 1931.71 439.02 1873.17 468.29"/><polygon class="cls-92" points="1814.63 497.56 1814.63 600 1873.17 600 1873.17 526.83 1814.63 497.56"/><polygon class="cls-11" points="1814.63 497.56 1873.17 526.83 1931.71 497.56 1873.17 468.29 1814.63 497.56"/><polygon class="cls-93" points="1814.63 439.02 1873.17 468.29 1873.17 409.76 1814.63 439.02"/><polygon class="cls-7" points="1873.17 307.32 1873.17 409.76 1873.17 468.29 1931.71 439.02 1931.71 278.05 1873.17 307.32"/><polygon class="cls-8" points="1931.71 278.05 1873.17 248.78 1814.63 278.05 1873.17 307.32 1931.71 278.05"/><polygon class="cls-9" points="1814.63 439.02 1814.63 497.56 1873.17 468.29 1814.63 439.02"/><polygon class="cls-94" points="1756.1 307.32 1756.1 468.29 1814.63 439.02 1814.63 336.58 1756.1 307.32"/><polygon class="cls-9" points="1756.1 468.29 1814.63 497.56 1814.63 439.02 1756.1 468.29"/><polygon class="cls-94" points="1756.1 468.29 1814.63 497.56 1814.63 439.02 1756.1 468.29"/><polygon class="cls-11" points="1814.63 336.58 1873.17 307.32 1814.63 278.05 1756.1 307.32 1814.63 336.58"/><polygon class="cls-95" points="1639.02 468.29 1697.56 497.56 1697.56 439.02 1639.02 468.29"/><polygon class="cls-7" points="1697.56 336.58 1697.56 439.02 1697.56 497.56 1756.1 468.29 1756.1 307.32 1697.56 336.58"/><polygon class="cls-8" points="1756.1 307.32 1697.56 278.05 1639.02 307.32 1697.56 336.58 1756.1 307.32"/><polygon class="cls-9" points="1639.02 468.29 1639.02 526.83 1697.56 497.56 1639.02 468.29"/><polygon class="cls-96" points="1580.49 336.58 1580.49 497.56 1639.02 468.29 1639.02 365.85 1580.49 336.58"/><polygon class="cls-9" points="1580.49 497.56 1639.02 526.83 1639.02 468.29 1580.49 497.56"/><polygon class="cls-96" points="1580.49 497.56 1639.02 526.83 1639.02 468.29 1580.49 497.56"/><polygon class="cls-11" points="1639.02 365.85 1697.56 336.58 1639.02 307.32 1580.49 336.58 1639.02 365.85"/><polygon class="cls-97" points="1990.24 409.76 2048.78 439.02 2048.78 380.49 1990.24 409.76"/><polygon class="cls-7" points="2048.78 278.05 2048.78 380.49 2048.78 439.02 2107.32 409.76 2107.32 248.78 2048.78 278.05"/><polygon class="cls-8" points="2107.32 248.78 2048.78 219.51 1990.24 248.78 2048.78 278.05 2107.32 248.78"/><polygon class="cls-9" points="1990.24 409.76 1990.24 468.29 2048.78 439.02 1990.24 409.76"/><polygon class="cls-98" points="1931.71 278.05 1931.71 439.02 1990.24 409.76 1990.24 307.32 1931.71 278.05"/><polygon class="cls-9" points="1931.71 439.02 1990.24 468.29 1990.24 409.76 1931.71 439.02"/><polygon class="cls-98" points="1931.71 439.02 1990.24 468.29 1990.24 409.76 1931.71 439.02"/><polygon class="cls-11" points="1990.24 307.32 2048.78 278.05 1990.24 248.78 1931.71 278.05 1990.24 307.32"/><polygon class="cls-7" points="1404.88 585.37 1404.88 600 1463.41 600 1463.41 556.1 1404.88 585.37"/><polygon class="cls-8" points="1346.34 556.1 1404.88 585.37 1463.41 556.1 1404.88 526.83 1346.34 556.1"/><polygon class="cls-99" points="1287.81 600 1317.07 600 1287.81 585.37 1287.81 600"/><polygon class="cls-11" points="1346.34 556.1 1287.81 585.37 1317.07 600 1375.61 600 1404.88 585.37 1346.34 556.1"/><polygon class="cls-100" points="1463.41 497.56 1521.95 526.83 1521.95 468.29 1463.41 497.56"/><polygon class="cls-7" points="1521.95 365.85 1521.95 468.29 1521.95 526.83 1580.49 497.56 1580.49 336.58 1521.95 365.85"/><polygon class="cls-8" points="1580.49 336.58 1521.95 307.32 1463.41 336.58 1521.95 365.85 1580.49 336.58"/><polygon class="cls-9" points="1463.41 497.56 1463.41 556.1 1521.95 526.83 1463.41 497.56"/><polygon class="cls-101" points="1404.88 365.85 1404.88 526.83 1463.41 497.56 1463.41 395.12 1404.88 365.85"/><polygon class="cls-9" points="1404.88 526.83 1463.41 556.1 1463.41 497.56 1404.88 526.83"/><polygon class="cls-101" points="1404.88 526.83 1463.41 556.1 1463.41 497.56 1404.88 526.83"/><polygon class="cls-11" points="1521.95 365.85 1463.41 336.58 1404.88 365.85 1463.41 395.12 1521.95 365.85"/><polygon class="cls-102" points="2341.46 570.73 2400 541.46 2400 439.02 2341.46 409.76 2341.46 570.73"/><polygon class="cls-9" points="2400 600 2400 541.46 2341.46 570.73 2400 600"/><polygon class="cls-102" points="2400 600 2400 541.46 2341.46 570.73 2400 600"/><polygon class="cls-11" points="2400 439.02 2400 380.49 2341.46 409.76 2400 439.02"/><polygon class="cls-8" points="2282.93 600 2400 600 2341.46 570.73 2282.93 600"/><polygon class="cls-103" points="2224.39 570.73 2282.93 600 2282.93 541.46 2224.39 570.73"/><polygon class="cls-7" points="2341.46 409.76 2282.93 439.02 2282.93 541.46 2282.93 600 2341.46 570.73 2341.46 409.76"/><polygon class="cls-8" points="2224.39 409.76 2282.93 439.02 2341.46 409.76 2282.93 380.49 2224.39 409.76"/><polygon class="cls-9" points="2224.39 600 2282.93 600 2224.39 570.73 2224.39 600"/><polygon class="cls-104" points="2224.39 468.29 2165.85 439.02 2165.85 600 2224.39 570.73 2224.39 468.29"/><polygon class="cls-9" points="2165.85 600 2224.39 600 2224.39 570.73 2165.85 600"/><polygon class="cls-104" points="2165.85 600 2224.39 600 2224.39 570.73 2165.85 600"/><polygon class="cls-11" points="2165.85 439.02 2224.39 468.29 2282.93 439.02 2224.39 409.76 2165.85 439.02"/><polygon class="cls-105" points="2400 380.49 2400 321.95 2341.46 351.22 2400 380.49"/><polygon class="cls-8" points="2400 219.51 2400 160.98 2341.46 190.24 2400 219.51"/><polygon class="cls-9" points="2341.46 409.76 2400 380.49 2341.46 351.22 2341.46 409.76"/><polygon class="cls-106" points="2341.46 351.22 2341.46 248.78 2282.93 219.51 2282.93 380.49 2341.46 351.22"/><polygon class="cls-9" points="2341.46 409.76 2341.46 351.22 2282.93 380.49 2341.46 409.76"/><polygon class="cls-106" points="2341.46 409.76 2341.46 351.22 2282.93 380.49 2341.46 409.76"/><polygon class="cls-11" points="2282.93 219.51 2341.46 248.78 2400 219.51 2341.46 190.24 2282.93 219.51"/><polygon class="cls-107" points="2048.78 600 2107.32 600 2107.32 570.73 2048.78 600"/><polygon class="cls-7" points="2107.32 468.29 2107.32 570.73 2107.32 600 2165.85 600 2165.85 439.02 2107.32 468.29"/><polygon class="cls-8" points="2048.78 439.02 2107.32 468.29 2165.85 439.02 2107.32 409.76 2048.78 439.02"/><polygon class="cls-108" points="1990.24 468.29 1990.24 600 2048.78 600 2048.78 497.56 1990.24 468.29"/><polygon class="cls-11" points="1990.24 468.29 2048.78 497.56 2107.32 468.29 2048.78 439.02 1990.24 468.29"/><polygon class="cls-109" points="2224.39 409.76 2224.39 351.22 2165.85 380.49 2224.39 409.76"/><polygon class="cls-7" points="2224.39 351.22 2224.39 409.76 2282.93 380.49 2282.93 219.51 2224.39 248.78 2224.39 351.22"/><polygon class="cls-8" points="2165.85 219.51 2224.39 248.78 2282.93 219.51 2224.39 190.24 2165.85 219.51"/><polygon class="cls-9" points="2165.85 380.49 2165.85 439.02 2224.39 409.76 2165.85 380.49"/><polygon class="cls-110" points="2107.32 248.78 2107.32 409.76 2165.85 380.49 2165.85 278.05 2107.32 248.78"/><polygon class="cls-9" points="2107.32 409.76 2165.85 439.02 2165.85 380.49 2107.32 409.76"/><polygon class="cls-110" points="2107.32 409.76 2165.85 439.02 2165.85 380.49 2107.32 409.76"/><polygon class="cls-11" points="2165.85 278.05 2224.39 248.78 2165.85 219.51 2107.32 248.78 2165.85 278.05"/></g><g id="azulejosgrande"><g class="cls-111"><polygon class="cls-112" points="15.61 146.51 -21.49 165.06 15.61 183.61 52.71 165.06 15.61 146.51"/><polygon class="cls-7" points="52.71 165.06 15.61 183.61 15.61 81.58 52.71 63.03 52.71 165.06"/><polygon class="cls-8" points="15.61 44.48 -21.49 63.03 15.61 81.58 52.71 63.03 15.61 44.48"/><polygon class="cls-9" points="-21.49 165.06 -58.59 183.61 -21.49 202.16 15.61 183.61 -21.49 165.06"/><polygon class="cls-11" points="-21.49 63.03 -58.59 81.58 -21.49 100.13 15.61 81.58 -21.49 63.03"/><polygon class="cls-113" points="-21.49 406.2 -58.59 424.75 -21.49 443.3 15.61 424.75 -21.49 406.2"/><polygon class="cls-7" points="15.61 424.75 -21.49 443.3 -21.49 341.28 15.61 322.73 15.61 424.75"/><polygon class="cls-8" points="-21.49 304.18 -58.59 322.73 -21.49 341.28 15.61 322.73 -21.49 304.18"/><polygon class="cls-114" points="-21.49 25.93 -58.59 44.48 -21.49 63.03 15.61 44.48 -21.49 25.93"/><polygon class="cls-7" points="15.61 44.48 -21.49 63.03 -21.49 -38.99 15.61 -57.54 15.61 44.48"/><polygon class="cls-115" points="52.71 267.08 15.61 285.63 52.71 304.18 89.81 285.63 52.71 267.08"/><polygon class="cls-7" points="89.81 285.63 52.71 304.18 52.71 202.16 89.81 183.61 89.81 285.63"/><polygon class="cls-8" points="52.71 165.06 15.61 183.61 52.71 202.16 89.81 183.61 52.71 165.06"/><polygon class="cls-9" points="15.61 285.63 -21.49 304.18 15.61 322.73 52.71 304.18 15.61 285.63"/><polygon class="cls-116" points="15.61 322.73 -21.49 304.18 -21.49 202.16 15.61 183.61 15.61 322.73"/><polygon class="cls-11" points="15.61 183.61 -21.49 202.16 15.61 220.71 52.71 202.16 15.61 183.61"/><polygon class="cls-117" points="89.81 387.65 52.71 406.2 89.81 424.75 126.91 406.2 89.81 387.65"/><polygon class="cls-7" points="126.91 406.2 89.81 424.75 89.81 322.73 126.91 304.18 126.91 406.2"/><polygon class="cls-8" points="89.81 285.63 52.71 304.18 89.81 322.73 126.91 304.18 89.81 285.63"/><polygon class="cls-9" points="52.71 406.2 15.61 424.75 52.71 443.3 89.81 424.75 52.71 406.2"/><polygon class="cls-118" points="52.71 443.3 15.61 424.75 15.61 322.73 52.71 304.18 52.71 443.3"/><polygon class="cls-11" points="52.71 304.18 15.61 322.73 52.71 341.28 89.81 322.73 52.71 304.18"/><polygon class="cls-7" points="89.81 665.9 52.71 684.45 52.71 582.42 89.81 563.88 89.81 665.9"/><polygon class="cls-8" points="52.71 545.33 15.61 563.88 52.71 582.42 89.81 563.88 52.71 545.33"/><polygon class="cls-119" points="15.61 703 -21.49 684.45 -21.49 582.42 15.61 563.88 15.61 703"/><polygon class="cls-11" points="15.61 563.88 -21.49 582.42 15.61 600.98 52.71 582.42 15.61 563.88"/><polygon class="cls-120" points="15.61 526.78 -21.49 545.33 15.61 563.88 52.71 545.33 15.61 526.78"/><polygon class="cls-7" points="52.71 545.33 15.61 563.88 15.61 461.85 52.71 443.3 52.71 545.33"/><polygon class="cls-8" points="15.61 424.75 -21.49 443.3 15.61 461.85 52.71 443.3 15.61 424.75"/><polygon class="cls-9" points="-21.49 545.33 -58.59 563.88 -21.49 582.42 15.61 563.88 -21.49 545.33"/><polygon class="cls-11" points="-21.49 443.3 -58.59 461.85 -21.49 480.4 15.61 461.85 -21.49 443.3"/><polygon class="cls-7" points="201.11 647.35 164.01 665.9 164.01 563.88 201.11 545.33 201.11 647.35"/><polygon class="cls-8" points="164.01 526.78 126.91 545.33 164.01 563.88 201.11 545.33 164.01 526.78"/><polygon class="cls-121" points="126.91 684.45 89.81 665.9 89.81 563.88 126.91 545.33 126.91 684.45"/><polygon class="cls-11" points="126.91 545.33 89.81 563.88 126.91 582.42 164.01 563.88 126.91 545.33"/><polygon class="cls-122" points="126.91 508.23 89.81 526.78 126.91 545.33 164.01 526.78 126.91 508.23"/><polygon class="cls-7" points="164.01 526.78 126.91 545.33 126.91 443.3 164.01 424.75 164.01 526.78"/><polygon class="cls-8" points="126.91 406.2 89.81 424.75 126.91 443.3 164.01 424.75 126.91 406.2"/><polygon class="cls-9" points="89.81 526.78 52.71 545.33 89.81 563.88 126.91 545.33 89.81 526.78"/><polygon class="cls-123" points="89.81 563.88 52.71 545.33 52.71 443.3 89.81 424.75 89.81 563.88"/><polygon class="cls-11" points="89.81 424.75 52.71 443.3 89.81 461.85 126.91 443.3 89.81 424.75"/><polygon class="cls-124" points="164.01 248.53 126.91 267.08 164.01 285.63 201.11 267.08 164.01 248.53"/><polygon class="cls-7" points="201.11 267.08 164.01 285.63 164.01 183.61 201.11 165.06 201.11 267.08"/><polygon class="cls-8" points="164.01 146.51 126.91 165.06 164.01 183.61 201.11 165.06 164.01 146.51"/><polygon class="cls-9" points="126.91 267.08 89.81 285.63 126.91 304.18 164.01 285.63 126.91 267.08"/><polygon class="cls-125" points="126.91 304.18 89.81 285.63 89.81 183.61 126.91 165.06 126.91 304.18"/><polygon class="cls-11" points="126.91 165.06 89.81 183.61 126.91 202.16 164.01 183.61 126.91 165.06"/><polygon class="cls-126" points="238.21 109.41 201.11 127.96 238.21 146.51 275.31 127.96 238.21 109.41"/><polygon class="cls-7" points="275.31 127.96 238.21 146.51 238.21 44.48 275.31 25.93 275.31 127.96"/><polygon class="cls-8" points="238.21 7.38 201.11 25.93 238.21 44.48 275.31 25.93 238.21 7.38"/><polygon class="cls-9" points="201.11 127.96 164.01 146.51 201.11 165.06 238.21 146.51 201.11 127.96"/><polygon class="cls-127" points="201.11 165.06 164.01 146.51 164.01 44.48 201.11 25.93 201.11 165.06"/><polygon class="cls-11" points="201.11 25.93 164.01 44.48 201.11 63.03 238.21 44.48 201.11 25.93"/><polygon class="cls-128" points="201.11 -11.17 164.01 7.38 201.11 25.93 238.21 7.38 201.11 -11.17"/><polygon class="cls-7" points="238.21 7.38 201.11 25.93 201.11 -76.09 238.21 -94.64 238.21 7.38"/><polygon class="cls-9" points="164.01 7.38 126.91 25.93 164.01 44.48 201.11 25.93 164.01 7.38"/><polygon class="cls-129" points="164.01 44.48 126.91 25.93 126.91 -76.09 164.01 -94.64 164.01 44.48"/><polygon class="cls-130" points="275.31 229.98 238.21 248.53 275.31 267.08 312.41 248.53 275.31 229.98"/><polygon class="cls-7" points="312.41 248.53 275.31 267.08 275.31 165.06 312.41 146.51 312.41 248.53"/><polygon class="cls-8" points="275.31 127.96 238.21 146.51 275.31 165.06 312.41 146.51 275.31 127.96"/><polygon class="cls-9" points="238.21 248.53 201.11 267.08 238.21 285.63 275.31 267.08 238.21 248.53"/><polygon class="cls-131" points="238.21 285.63 201.11 267.08 201.11 165.06 238.21 146.51 238.21 285.63"/><polygon class="cls-11" points="238.21 146.51 201.11 165.06 238.21 183.61 275.31 165.06 238.21 146.51"/><polygon class="cls-132" points="349.51 90.86 312.41 109.41 349.51 127.96 386.61 109.41 349.51 90.86"/><polygon class="cls-7" points="386.61 109.41 349.51 127.96 349.51 25.93 386.61 7.38 386.61 109.41"/><polygon class="cls-8" points="349.51 -11.17 312.41 7.38 349.51 25.93 386.61 7.38 349.51 -11.17"/><polygon class="cls-9" points="312.41 109.41 275.31 127.96 312.41 146.51 349.51 127.96 312.41 109.41"/><polygon class="cls-133" points="312.41 146.51 275.31 127.96 275.31 25.93 312.41 7.38 312.41 146.51"/><polygon class="cls-11" points="312.41 7.38 275.31 25.93 312.41 44.48 349.51 25.93 312.41 7.38"/><polygon class="cls-134" points="201.11 369.1 164.01 387.65 201.11 406.2 238.21 387.65 201.11 369.1"/><polygon class="cls-7" points="238.21 387.65 201.11 406.2 201.11 304.18 238.21 285.63 238.21 387.65"/><polygon class="cls-8" points="201.11 267.08 164.01 285.63 201.11 304.18 238.21 285.63 201.11 267.08"/><polygon class="cls-9" points="164.01 387.65 126.91 406.2 164.01 424.75 201.11 406.2 164.01 387.65"/><polygon class="cls-135" points="164.01 424.75 126.91 406.2 126.91 304.18 164.01 285.63 164.01 424.75"/><polygon class="cls-11" points="164.01 285.63 126.91 304.18 164.01 322.73 201.11 304.18 164.01 285.63"/><polygon class="cls-136" points="386.61 211.43 349.51 229.98 386.61 248.53 423.71 229.98 386.61 211.43"/><polygon class="cls-7" points="423.71 229.98 386.61 248.53 386.61 146.51 423.71 127.96 423.71 229.98"/><polygon class="cls-8" points="386.61 109.41 349.51 127.96 386.61 146.51 423.71 127.96 386.61 109.41"/><polygon class="cls-9" points="349.51 229.98 312.41 248.53 349.51 267.08 386.61 248.53 349.51 229.98"/><polygon class="cls-137" points="349.51 267.08 312.41 248.53 312.41 146.51 349.51 127.96 349.51 267.08"/><polygon class="cls-11" points="349.51 127.96 312.41 146.51 349.51 165.06 386.61 146.51 349.51 127.96"/><polygon class="cls-138" points="312.41 -29.72 275.31 -11.17 312.41 7.38 349.51 -11.17 312.41 -29.72"/><polygon class="cls-7" points="349.51 -11.17 312.41 7.38 312.41 -94.64 349.51 -113.19 349.51 -11.17"/><polygon class="cls-9" points="275.31 -11.17 238.21 7.38 275.31 25.93 312.41 7.38 275.31 -11.17"/><polygon class="cls-139" points="275.31 25.93 238.21 7.38 238.21 -94.64 275.31 -113.19 275.31 25.93"/><polygon class="cls-140" points="312.41 350.55 275.31 369.1 312.41 387.65 349.51 369.1 312.41 350.55"/><polygon class="cls-7" points="349.51 369.1 312.41 387.65 312.41 285.63 349.51 267.08 349.51 369.1"/><polygon class="cls-8" points="312.41 248.53 275.31 267.08 312.41 285.63 349.51 267.08 312.41 248.53"/><polygon class="cls-9" points="275.31 369.1 238.21 387.65 275.31 406.2 312.41 387.65 275.31 369.1"/><polygon class="cls-141" points="275.31 406.2 238.21 387.65 238.21 285.63 275.31 267.08 275.31 406.2"/><polygon class="cls-11" points="275.31 267.08 238.21 285.63 275.31 304.18 312.41 285.63 275.31 267.08"/><polygon class="cls-142" points="460.81 72.31 423.71 90.86 460.81 109.41 497.91 90.86 460.81 72.31"/><polygon class="cls-7" points="497.91 90.86 460.81 109.41 460.81 7.38 497.91 -11.17 497.91 90.86"/><polygon class="cls-8" points="460.81 -29.72 423.71 -11.17 460.81 7.38 497.91 -11.17 460.81 -29.72"/><polygon class="cls-9" points="423.71 90.86 386.61 109.41 423.71 127.96 460.81 109.41 423.71 90.86"/><polygon class="cls-143" points="423.71 127.96 386.61 109.41 386.61 7.38 423.71 -11.17 423.71 127.96"/><polygon class="cls-11" points="423.71 -11.17 386.61 7.38 423.71 25.93 460.81 7.38 423.71 -11.17"/><polygon class="cls-144" points="423.71 332 386.61 350.55 423.71 369.1 460.81 350.55 423.71 332"/><polygon class="cls-7" points="460.81 350.55 423.71 369.1 423.71 267.08 460.81 248.53 460.81 350.55"/><polygon class="cls-8" points="423.71 229.98 386.61 248.53 423.71 267.08 460.81 248.53 423.71 229.98"/><polygon class="cls-9" points="386.61 350.55 349.51 369.1 386.61 387.65 423.71 369.1 386.61 350.55"/><polygon class="cls-145" points="386.61 387.65 349.51 369.1 349.51 267.08 386.61 248.53 386.61 387.65"/><polygon class="cls-11" points="386.61 248.53 349.51 267.08 386.61 285.63 423.71 267.08 386.61 248.53"/><polygon class="cls-9" points="386.61 -29.72 349.51 -11.17 386.61 7.38 423.71 -11.17 386.61 -29.72"/><polygon class="cls-146" points="386.61 7.38 349.51 -11.17 349.51 -113.19 386.61 -131.74 386.61 7.38"/><polygon class="cls-147" points="497.91 192.88 460.81 211.43 497.91 229.98 535 211.43 497.91 192.88"/><polygon class="cls-7" points="535 211.43 497.91 229.98 497.91 127.96 535 109.41 535 211.43"/><polygon class="cls-8" points="497.91 90.86 460.81 109.41 497.91 127.96 535 109.41 497.91 90.86"/><polygon class="cls-9" points="460.81 211.43 423.71 229.98 460.81 248.53 497.91 229.98 460.81 211.43"/><polygon class="cls-148" points="460.81 248.53 423.71 229.98 423.71 127.96 460.81 109.41 460.81 248.53"/><polygon class="cls-11" points="460.81 109.41 423.71 127.96 460.81 146.51 497.91 127.96 460.81 109.41"/><polygon class="cls-149" points="535 313.45 497.91 332 535 350.55 572.11 332 535 313.45"/><polygon class="cls-7" points="572.11 332 535 350.55 535 248.53 572.11 229.98 572.11 332"/><polygon class="cls-8" points="535 211.43 497.91 229.98 535 248.53 572.11 229.98 535 211.43"/><polygon class="cls-9" points="497.91 332 460.81 350.55 497.91 369.1 535 350.55 497.91 332"/><polygon class="cls-150" points="497.91 369.1 460.81 350.55 460.81 248.53 497.91 229.98 497.91 369.1"/><polygon class="cls-11" points="497.91 229.98 460.81 248.53 497.91 267.08 535 248.53 497.91 229.98"/><polygon class="cls-151" points="89.81 7.38 52.71 25.93 89.81 44.48 126.91 25.93 89.81 7.38"/><polygon class="cls-7" points="126.91 25.93 89.81 44.48 89.81 -57.54 126.91 -76.09 126.91 25.93"/><polygon class="cls-9" points="52.71 25.93 15.61 44.48 52.71 63.03 89.81 44.48 52.71 25.93"/><polygon class="cls-152" points="52.71 63.03 15.61 44.48 15.61 -57.54 52.71 -76.09 52.71 63.03"/><polygon class="cls-153" points="126.91 127.96 89.81 146.51 126.91 165.06 164.01 146.51 126.91 127.96"/><polygon class="cls-7" points="164.01 146.51 126.91 165.06 126.91 63.03 164.01 44.48 164.01 146.51"/><polygon class="cls-8" points="126.91 25.93 89.81 44.48 126.91 63.03 164.01 44.48 126.91 25.93"/><polygon class="cls-9" points="89.81 146.51 52.71 165.06 89.81 183.61 126.91 165.06 89.81 146.51"/><polygon class="cls-154" points="89.81 183.61 52.71 165.06 52.71 63.03 89.81 44.48 89.81 183.61"/><polygon class="cls-11" points="89.81 44.48 52.71 63.03 89.81 81.58 126.91 63.03 89.81 44.48"/><polygon class="cls-155" points="386.61 591.7 349.51 610.25 386.61 628.8 423.71 610.25 386.61 591.7"/><polygon class="cls-7" points="423.71 610.25 386.61 628.8 386.61 526.78 423.71 508.23 423.71 610.25"/><polygon class="cls-8" points="386.61 489.68 349.51 508.23 386.61 526.78 423.71 508.23 386.61 489.68"/><polygon class="cls-156" points="349.51 647.35 312.41 628.8 312.41 526.78 349.51 508.23 349.51 647.35"/><polygon class="cls-11" points="349.51 508.23 312.41 526.78 349.51 545.33 386.61 526.78 349.51 508.23"/><polygon class="cls-157" points="349.51 471.13 312.41 489.68 349.51 508.23 386.61 489.68 349.51 471.13"/><polygon class="cls-7" points="386.61 489.68 349.51 508.23 349.51 406.2 386.61 387.65 386.61 489.68"/><polygon class="cls-8" points="349.51 369.1 312.41 387.65 349.51 406.2 386.61 387.65 349.51 369.1"/><polygon class="cls-9" points="312.41 489.68 275.31 508.23 312.41 526.78 349.51 508.23 312.41 489.68"/><polygon class="cls-158" points="312.41 526.78 275.31 508.23 275.31 406.2 312.41 387.65 312.41 526.78"/><polygon class="cls-11" points="312.41 387.65 275.31 406.2 312.41 424.75 349.51 406.2 312.41 387.65"/><polygon class="cls-159" points="497.91 573.15 460.81 591.7 497.91 610.25 535 591.7 497.91 573.15"/><polygon class="cls-7" points="535 591.7 497.91 610.25 497.91 508.23 535 489.68 535 591.7"/><polygon class="cls-8" points="497.91 471.13 460.81 489.68 497.91 508.23 535 489.68 497.91 471.13"/><polygon class="cls-9" points="460.81 591.7 423.71 610.25 460.81 628.8 497.91 610.25 460.81 591.7"/><polygon class="cls-160" points="460.81 628.8 423.71 610.25 423.71 508.23 460.81 489.68 460.81 628.8"/><polygon class="cls-11" points="460.81 489.68 423.71 508.23 460.81 526.78 497.91 508.23 460.81 489.68"/><polygon class="cls-8" points="535 591.7 497.91 610.25 535 628.8 572.11 610.25 535 591.7"/><polygon class="cls-161" points="460.81 452.58 423.71 471.13 460.81 489.68 497.91 471.13 460.81 452.58"/><polygon class="cls-7" points="497.91 471.13 460.81 489.68 460.81 387.65 497.91 369.1 497.91 471.13"/><polygon class="cls-8" points="460.81 350.55 423.71 369.1 460.81 387.65 497.91 369.1 460.81 350.55"/><polygon class="cls-9" points="423.71 471.13 386.61 489.68 423.71 508.23 460.81 489.68 423.71 471.13"/><polygon class="cls-162" points="423.71 508.23 386.61 489.68 386.61 387.65 423.71 369.1 423.71 508.23"/><polygon class="cls-11" points="423.71 369.1 386.61 387.65 423.71 406.2 460.81 387.65 423.71 369.1"/><polygon class="cls-163" points="609.2 554.6 572.11 573.15 609.2 591.7 646.3 573.15 609.2 554.6"/><polygon class="cls-7" points="646.3 573.15 609.2 591.7 609.2 489.68 646.3 471.13 646.3 573.15"/><polygon class="cls-8" points="609.2 452.58 572.11 471.13 609.2 489.68 646.3 471.13 609.2 452.58"/><polygon class="cls-9" points="572.11 573.15 535 591.7 572.11 610.25 609.2 591.7 572.11 573.15"/><polygon class="cls-164" points="572.11 610.25 535 591.7 535 489.68 572.11 471.13 572.11 610.25"/><polygon class="cls-11" points="572.11 471.13 535 489.68 572.11 508.23 609.2 489.68 572.11 471.13"/><polygon class="cls-165" points="572.11 434.03 535 452.58 572.11 471.13 609.2 452.58 572.11 434.03"/><polygon class="cls-7" points="609.2 452.58 572.11 471.13 572.11 369.1 609.2 350.55 609.2 452.58"/><polygon class="cls-8" points="572.11 332 535 350.55 572.11 369.1 609.2 350.55 572.11 332"/><polygon class="cls-9" points="535 452.58 497.91 471.13 535 489.68 572.11 471.13 535 452.58"/><polygon class="cls-166" points="535 489.68 497.91 471.13 497.91 369.1 535 350.55 535 489.68"/><polygon class="cls-11" points="535 350.55 497.91 369.1 535 387.65 572.11 369.1 535 350.55"/><polygon class="cls-7" points="683.4 693.72 646.3 712.27 646.3 610.25 683.4 591.7 683.4 693.72"/><polygon class="cls-8" points="646.3 573.15 609.2 591.7 646.3 610.25 683.4 591.7 646.3 573.15"/><polygon class="cls-167" points="609.2 730.82 572.11 712.27 572.11 610.25 609.2 591.7 609.2 730.82"/><polygon class="cls-11" points="609.2 591.7 572.11 610.25 609.2 628.8 646.3 610.25 609.2 591.7"/><polygon class="cls-168" points="238.21 489.68 201.11 508.23 238.21 526.78 275.31 508.23 238.21 489.68"/><polygon class="cls-7" points="275.31 508.23 238.21 526.78 238.21 424.75 275.31 406.2 275.31 508.23"/><polygon class="cls-8" points="238.21 387.65 201.11 406.2 238.21 424.75 275.31 406.2 238.21 387.65"/><polygon class="cls-9" points="201.11 508.23 164.01 526.78 201.11 545.33 238.21 526.78 201.11 508.23"/><polygon class="cls-169" points="201.11 545.33 164.01 526.78 164.01 424.75 201.11 406.2 201.11 545.33"/><polygon class="cls-11" points="201.11 406.2 164.01 424.75 201.11 443.3 238.21 424.75 201.11 406.2"/><polygon class="cls-7" points="312.41 628.8 275.31 647.35 275.31 545.33 312.41 526.78 312.41 628.8"/><polygon class="cls-8" points="275.31 508.23 238.21 526.78 275.31 545.33 312.41 526.78 275.31 508.23"/><polygon class="cls-170" points="238.21 665.9 201.11 647.35 201.11 545.33 238.21 526.78 238.21 665.9"/><polygon class="cls-11" points="238.21 526.78 201.11 545.33 238.21 563.88 275.31 545.33 238.21 526.78"/></g></g></svg>