<svg xmlns="http://www.w3.org/2000/svg" xmlns:xlink="http://www.w3.org/1999/xlink" viewBox="0 0 378 189"><defs><style>.cls-1{fill:url(#Degradado_sin_nombre_16);}.cls-2{fill:url(#Degradado_sin_nombre_12);}</style><linearGradient id="Degradado_sin_nombre_16" x1="119.75" y1="111.46" x2="103.25" y2="140.04" gradientUnits="userSpaceOnUse"><stop offset="0" stop-color="#19adb0"/><stop offset="1" stop-color="#14bfb1"/></linearGradient><linearGradient id="Degradado_sin_nombre_12" x1="259.88" y1="-28.27" x2="100.83" y2="247.21" gradientUnits="userSpaceOnUse"><stop offset="0" stop-color="#3e34a6"/><stop offset="1" stop-color="#02fab6"/></linearGradient></defs><g id="Capa_2" data-name="Capa 2"><g id="Capa_2-2" data-name="Capa 2"><circle class="cls-1" cx="111.5" cy="125.75" r="16.5"/><path class="cls-2" d="M283.5,0H94.5A94.5,94.5,0,0,0,0,94.5V189H283.5A94.5,94.5,0,0,0,378,94.5h0A94.5,94.5,0,0,0,283.5,0ZM180,16.25h30V73.89H180Zm61.5,156h-15a46.54,46.54,0,0,1-46.49-46c0-.17,0-.33,0-.5V114.61h30v11.14a16.52,16.52,0,0,0,16.5,16.5h15Zm51.5-46.5v47H263v-47a16.52,16.52,0,0,0-16.5-16.5H158v16.5c0,.17,0,.33,0,.5a46.5,46.5,0,1,1-46.49-47H128v-63h30v63h88.5a16.5,16.5,0,0,0,0-33h-15v-30h15a46.46,46.46,0,0,1,34.16,78A46.28,46.28,0,0,1,293,125.75Z"/></g></g></svg>